<?xml version="1.0" standalone="no"?>
<!DOCTYPE svg PUBLIC "-//W3C//DTD SVG 20010904//EN"
 "http://www.w3.org/TR/2001/REC-SVG-20010904/DTD/svg10.dtd">
<svg version="1.0" xmlns="http://www.w3.org/2000/svg"
 width="300.000000pt" height="88.000000pt" viewBox="0 0 300.000000 88.000000"
 preserveAspectRatio="xMidYMid meet">
<metadata>
Created by potrace 1.10, written by Peter Selinger 2001-2011
</metadata>
<g transform="translate(0.000000,88.000000) scale(0.100000,-0.100000)"
fill="#000000" stroke="none">
<path d="M14 865 c28 -21 66 -19 66 3 0 14 -2 15 -10 2 -8 -12 -15 -13 -42 -3
-30 11 -31 11 -14 -2z"/>
<path d="M99 804 c-2 -73 -2 -75 -8 -27 -4 28 -9 54 -11 56 -3 2 -20 7 -38 10
l-33 7 3 -77 c1 -42 4 -71 6 -65 2 7 11 12 20 12 15 1 15 2 0 14 -13 9 -18 27
-18 58 0 42 2 45 24 41 18 -4 26 -13 31 -40 4 -22 2 -40 -6 -50 -27 -31 38
-37 69 -6 7 7 10 13 5 13 -5 0 -14 -5 -19 -10 -8 -8 -12 11 -13 62 -3 98 -11
100 -12 2z"/>
<path d="M150 867 c14 -7 37 -21 51 -30 14 -9 29 -14 32 -10 4 3 7 1 7 -5 0
-10 38 -28 53 -24 4 1 7 -3 7 -9 0 -5 4 -8 9 -5 5 4 12 0 14 -6 4 -10 8 -9 17
2 9 12 10 11 5 -8 -6 -21 -4 -23 14 -17 15 4 23 1 27 -10 4 -9 13 -14 20 -11
8 3 13 2 11 -2 -1 -4 3 -9 8 -12 29 -14 43 -33 32 -45 -9 -9 -14 -10 -19 -1
-5 8 -13 7 -30 -3 -16 -10 -23 -10 -26 -2 -6 17 -52 14 -52 -5 0 -8 -4 -13 -9
-9 -5 3 -12 1 -15 -4 -4 -5 2 -8 11 -7 9 2 19 8 21 14 4 13 32 17 32 4 0 -4
-6 -14 -12 -21 -10 -10 -8 -10 10 0 19 12 24 12 31 1 6 -10 10 -8 16 10 l7 23
8 -25 c4 -14 8 -19 9 -11 1 7 7 11 15 8 8 -3 13 1 12 11 -1 12 6 16 24 15 24
-3 24 -2 6 12 -11 8 -23 15 -26 15 -4 0 -7 6 -7 14 0 12 4 12 24 -1 21 -14 27
-26 24 -46 -1 -4 15 -15 34 -24 39 -19 42 -25 20 -43 -9 -7 -14 -19 -11 -27 3
-7 1 -13 -3 -13 -5 0 -26 -26 -47 -57 -21 -32 -40 -60 -43 -63 -3 -3 -7 -13
-9 -24 -2 -12 1 -16 9 -10 8 4 10 3 5 -4 -4 -7 -1 -12 6 -12 10 0 10 -2 -1 -9
-9 -6 -10 -10 -2 -14 7 -3 7 -4 -1 -2 -7 1 -12 8 -10 14 3 14 -4 14 -30 0 -16
-8 -19 -17 -14 -40 3 -16 1 -29 -4 -29 -6 0 -9 3 -9 7 3 21 -3 21 -23 1 -12
-12 -23 -29 -23 -38 -1 -9 -10 -30 -21 -46 -11 -16 -29 -46 -39 -68 -11 -21
-27 -40 -35 -43 -50 -16 -58 -22 -53 -42 3 -12 10 -21 15 -21 5 0 6 9 3 20 -5
16 -2 20 17 18 13 -2 26 -7 30 -13 13 -17 9 -42 -6 -42 -8 0 -11 8 -8 21 4 17
2 19 -9 9 -7 -7 -14 -19 -15 -27 -3 -18 24 -30 40 -17 6 5 20 5 31 1 26 -9 45
-2 45 17 0 11 -8 14 -30 11 -16 -3 -30 -1 -30 3 0 4 -3 14 -6 23 -3 9 -1 16 5
16 6 0 11 -8 11 -17 0 -14 2 -15 13 -4 10 10 8 16 -10 30 -20 17 -21 20 -7 37
14 18 15 18 9 -3 -4 -13 -4 -23 -2 -23 8 0 60 93 60 106 0 7 10 18 22 24 19
10 32 4 112 -51 54 -38 89 -68 86 -76 -4 -9 -9 -9 -21 4 -11 10 -17 12 -20 4
-2 -6 -8 -11 -13 -11 -6 0 -8 4 -5 9 9 14 -60 62 -79 55 -10 -4 -15 -2 -13 7
2 9 -4 13 -16 11 -17 -3 -18 -2 -7 12 18 21 6 33 -15 15 -14 -12 -13 -16 17
-39 l32 -27 -31 -45 c-23 -33 -27 -45 -15 -45 8 0 26 18 40 39 14 21 27 38 29
38 10 0 74 -46 77 -55 2 -5 3 -2 2 7 -2 10 2 15 11 11 7 -2 10 -12 7 -21 -3
-9 4 -3 16 13 11 17 31 32 43 35 20 5 17 10 -34 45 -45 32 -56 44 -51 60 5 20
5 20 -12 0 -17 -20 -17 -20 -10 0 4 11 8 26 8 33 0 16 14 16 20 0 4 -8 6 -9 6
-2 1 7 -11 20 -26 30 -26 16 -27 16 -14 0 13 -15 12 -17 -13 -12 -15 3 -24 1
-21 -5 4 -5 10 -7 14 -5 14 9 30 -9 21 -24 -7 -11 -16 -9 -49 14 -49 34 -45
55 13 58 l41 1 -37 4 c-21 2 -38 8 -38 13 0 15 64 4 110 -20 25 -13 51 -23 59
-21 7 1 10 -2 7 -7 -3 -6 29 -31 71 -56 43 -25 84 -49 91 -54 10 -7 7 -19 -15
-55 -24 -40 -33 -46 -61 -47 -19 0 -47 9 -64 21 -16 12 -31 19 -33 17 -2 -2
14 -15 36 -28 28 -18 39 -30 35 -42 -2 -10 0 -20 5 -23 4 -3 7 -11 5 -18 -1
-7 -1 -8 2 -4 2 4 11 2 20 -5 15 -12 15 -11 4 4 -11 14 -10 20 7 37 l21 21 52
-35 c35 -23 56 -31 62 -25 7 7 4 16 -9 28 -18 16 -18 16 -6 -1 24 -31 7 -27
-46 10 -55 38 -55 40 -19 88 11 15 18 17 26 9 9 -9 8 -18 -4 -36 -15 -23 -15
-26 6 -44 13 -12 18 -13 13 -4 -14 22 -16 48 -5 55 5 3 7 0 4 -8 -7 -20 16
-33 27 -16 5 8 4 15 -1 17 -6 2 -7 9 -4 14 4 7 2 8 -4 4 -7 -4 -12 -2 -12 5 0
6 -8 18 -17 25 -17 12 -17 13 -1 14 18 0 48 -25 48 -41 0 -6 8 -8 19 -4 17 5
49 -19 44 -34 -1 -3 5 -5 14 -3 8 2 12 -1 9 -7 -3 -5 8 -19 24 -31 38 -27 51
-20 15 8 -30 24 -26 58 6 41 25 -13 24 3 -1 19 -11 7 -20 8 -20 2 0 -6 -10 -5
-25 2 -14 6 -25 17 -25 24 0 8 -12 16 -27 20 -16 3 -34 7 -41 10 -17 5 -27 33
-16 44 12 12 158 -22 147 -34 -5 -5 -3 -6 5 -2 24 14 11 23 -58 36 -72 14
-100 35 -32 25 33 -5 34 -4 12 5 -14 6 -34 10 -45 8 -17 -4 -20 2 -22 39 -1
28 2 43 10 43 7 0 4 5 -5 11 -21 11 -24 68 -7 100 10 20 10 20 45 -1 20 -11
40 -17 46 -14 7 4 8 2 4 -4 -4 -7 -1 -12 8 -12 8 0 16 -4 18 -8 5 -13 77 -51
82 -43 12 19 -4 47 -40 66 -21 12 -61 35 -89 53 -36 22 -52 28 -58 19 -5 -8
-7 -5 -5 8 3 14 11 19 26 18 12 -2 22 2 22 8 0 5 8 9 17 7 10 -2 18 4 19 15 1
13 1 13 -3 2 -4 -13 -8 -14 -19 -4 -7 6 -11 15 -8 20 3 5 3 9 -1 9 -3 0 -10
-10 -15 -22 -7 -18 -9 -19 -9 -5 -1 13 -10 17 -45 17 -24 0 -46 -5 -48 -11 -3
-8 -9 -6 -20 4 -8 9 -19 13 -22 9 -4 -3 -10 -2 -14 4 -4 5 -24 20 -45 33 -20
12 -37 27 -37 32 0 5 -9 9 -19 9 -10 0 -49 18 -85 40 -36 22 -72 40 -80 40
-10 0 -15 17 -18 60 -2 33 -10 66 -16 72 -9 9 -9 4 -2 -23 6 -18 10 -46 10
-61 l0 -27 -47 27 c-27 15 -54 27 -62 29 -7 1 -23 10 -35 21 -28 25 -66 45
-74 38 -3 -3 -1 -6 4 -6 5 0 20 -10 34 -21 20 -16 21 -18 4 -10 -12 6 -24 8
-27 5 -9 -9 -48 16 -42 27 4 5 -9 9 -27 9 l-33 0 25 -13z m418 -200 c6 3 12
-2 12 -11 0 -13 -4 -14 -23 -5 -13 6 -24 18 -24 26 0 14 2 14 11 1 6 -8 17
-13 24 -11z m49 -23 c-3 -3 -12 -4 -19 -1 -8 3 -5 6 6 6 11 1 17 -2 13 -5z
m23 -24 c0 -5 -8 -10 -18 -10 -10 0 -23 -5 -30 -12 -13 -13 -15 -8 -6 16 7 17
54 22 54 6z m60 -43 c-9 -9 -14 -8 -24 5 -7 10 -15 16 -18 13 -2 -3 -5 1 -5 9
0 13 5 13 30 0 22 -12 27 -18 17 -27z m-46 2 c20 -12 36 -28 37 -37 0 -12 3
-10 9 5 8 18 14 21 32 15 26 -9 38 -9 53 -1 6 3 26 6 45 8 l35 2 -31 -32 c-28
-28 -34 -30 -55 -19 -13 7 -27 18 -31 24 -5 8 -11 7 -20 -2 -9 -9 -9 -12 0
-12 8 0 13 -27 14 -87 l2 -88 3 83 c2 45 6 82 9 82 2 0 16 -7 29 -16 23 -15
24 -18 10 -44 -8 -16 -15 -45 -15 -65 0 -40 -25 -57 -73 -48 -20 4 -27 1 -27
-11 0 -9 5 -16 11 -16 5 0 7 5 3 12 -4 7 -3 8 4 4 13 -8 16 -36 4 -36 -4 0
-19 7 -32 16 l-25 17 25 -25 c25 -26 50 -22 50 8 0 16 34 27 60 19 13 -4 20
-2 20 7 1 9 3 9 9 -2 15 -27 22 -70 11 -70 -5 0 -10 9 -10 21 0 14 -5 19 -14
16 -8 -3 -16 -2 -18 3 -2 4 -11 -3 -21 -16 -20 -27 -16 -32 7 -8 12 12 16 12
16 2 0 -10 3 -9 10 2 8 13 10 13 10 -2 0 -9 -4 -19 -9 -22 -5 -3 -7 -15 -4
-26 8 -28 -8 -25 -67 15 -55 37 -65 42 -54 24 4 -7 -2 -7 -17 1 -35 18 -38 23
-9 16 14 -4 -1 7 -32 24 -41 21 -56 34 -52 45 7 17 13 18 34 5 12 -8 12 -10
-5 -10 -18 -1 -17 -2 4 -11 13 -5 26 -7 29 -4 3 3 0 5 -7 5 -7 0 -10 4 -6 9 7
13 -32 34 -47 25 -8 -5 -9 -2 -5 9 4 10 2 16 -6 14 -7 -1 -11 7 -10 18 1 11
-3 23 -9 26 -7 5 -3 17 11 37 11 17 21 35 21 41 0 6 3 11 8 11 4 0 15 14 24
30 9 17 19 30 22 30 3 0 21 -9 40 -21z m-134 -98 c-5 -11 -8 -26 -7 -33 2 -7
2 -10 0 -6 -2 4 -11 4 -20 1 -14 -5 -13 -2 3 25 20 34 42 45 24 13z m372 -10
c-2 -8 3 -11 12 -8 17 7 54 -18 43 -29 -4 -4 -7 -2 -7 4 0 7 -10 12 -23 12
-13 0 -32 7 -43 15 -10 8 -24 15 -30 15 -17 0 -45 -68 -38 -95 4 -15 2 -25 -5
-25 -16 0 -13 66 5 101 13 26 20 30 52 27 25 -2 36 -7 34 -17z m135 -77 c0 -8
-5 -13 -11 -11 -6 3 -10 10 -8 16 1 6 -8 11 -21 11 -14 0 -24 6 -24 14 0 12 5
12 32 -1 17 -8 32 -22 32 -29z m-507 16 c21 -17 22 -19 5 -15 -16 5 -16 3 3
-6 12 -7 22 -16 22 -20 0 -10 -59 -3 -69 7 -3 4 3 4 14 1 20 -7 20 -7 0 8 -16
13 -17 17 -6 24 11 7 10 10 -5 14 -12 3 -13 5 -4 6 8 0 26 -8 40 -19z m-12
-181 c45 -31 77 -59 71 -61 -17 -6 -178 104 -179 120 0 16 -1 16 108 -59z
m-118 47 c0 -2 -7 -9 -15 -16 -13 -11 -14 -10 -9 4 5 14 24 23 24 12z m430
-43 c0 -5 -4 -14 -9 -22 -7 -10 -4 -19 7 -28 15 -13 15 -13 -3 -4 -11 5 -29
17 -40 25 -16 13 -16 15 -3 10 11 -4 20 0 24 10 6 16 24 23 24 9z m-479 -30
c-8 -15 -10 -15 -11 -2 0 17 10 32 18 25 2 -3 -1 -13 -7 -23z m154 -50 l30
-26 -29 18 c-33 20 -29 22 -79 -46 -10 -13 -9 -8 3 11 12 19 24 43 27 53 7 22
12 21 48 -10z m122 1 c-3 -3 -12 -4 -19 -1 -8 3 -5 6 6 6 11 1 17 -2 13 -5z
m333 -56 c0 -6 -6 -5 -15 2 -8 7 -15 14 -15 16 0 2 7 1 15 -2 8 -4 15 -11 15
-16z m-227 -25 c-7 -2 -19 -2 -25 0 -7 3 -2 5 12 5 14 0 19 -2 13 -5z m-19
-28 c-4 -8 -8 -15 -10 -15 -2 0 -4 7 -4 15 0 8 4 15 10 15 5 0 7 -7 4 -15z"/>
<path d="M787 546 c-4 -10 0 -14 12 -13 11 1 17 7 14 14 -7 17 -20 17 -26 -1z"/>
<path d="M603 543 c9 -2 25 -2 35 0 9 3 1 5 -18 5 -19 0 -27 -2 -17 -5z"/>
<path d="M580 510 c6 -11 12 -20 14 -20 2 0 2 9 -1 20 -3 11 -9 20 -15 20 -5
0 -4 -9 2 -20z"/>
<path d="M613 523 c9 -2 23 -2 30 0 6 3 -1 5 -18 5 -16 0 -22 -2 -12 -5z"/>
<path d="M690 495 c0 -14 2 -25 4 -25 2 0 6 11 8 25 3 14 1 25 -3 25 -5 0 -9
-11 -9 -25z"/>
<path d="M722 495 c0 -16 2 -22 5 -12 2 9 2 23 0 30 -3 6 -5 -1 -5 -18z"/>
<path d="M613 473 c15 -2 37 -2 50 0 12 2 0 4 -28 4 -27 0 -38 -2 -22 -4z"/>
<path d="M580 451 c0 -7 -4 -9 -10 -6 -12 8 -13 -5 -1 -23 6 -10 10 -8 14 9 4
13 4 25 2 28 -3 2 -5 -1 -5 -8z"/>
<path d="M665 450 c3 -5 8 -10 11 -10 2 0 4 5 4 10 0 6 -5 10 -11 10 -5 0 -7
-4 -4 -10z"/>
<path d="M690 445 c0 -8 6 -15 14 -15 10 0 16 -13 19 -37 3 -31 4 -29 5 15 2
46 0 52 -18 52 -11 0 -20 -7 -20 -15z"/>
<path d="M611 420 c0 -8 4 -22 9 -30 12 -18 12 -2 0 25 -6 13 -9 15 -9 5z"/>
<path d="M670 396 c0 -13 -6 -27 -12 -29 -8 -3 -6 -6 5 -6 12 -1 17 7 17 29 0
17 -2 30 -5 30 -3 0 -5 -11 -5 -24z"/>
<path d="M636 341 c-4 -5 3 -7 14 -4 23 6 26 13 6 13 -8 0 -17 -4 -20 -9z"/>
<path d="M294 868 c-4 -5 -3 -12 0 -15 3 -4 6 0 7 8 1 8 4 3 8 -11 l7 -25 5
26 c6 25 -15 37 -27 17z"/>
<path d="M336 865 c-3 -9 -6 -22 -5 -28 0 -7 5 -1 10 12 5 13 8 26 5 28 -2 2
-6 -3 -10 -12z"/>
<path d="M448 860 c4 -14 7 -42 6 -62 l0 -38 48 0 c35 0 54 6 68 20 22 22 25
36 10 45 -6 4 -10 -5 -10 -19 0 -14 -5 -26 -11 -26 -7 0 -9 10 -5 25 4 16 2
25 -5 25 -7 0 -10 -12 -7 -30 5 -30 4 -30 -41 -29 -30 1 -36 3 -18 6 17 3 27
10 26 21 0 11 -3 12 -6 5 -8 -20 -33 -15 -33 6 0 11 -3 26 -6 35 -4 11 -1 16
11 16 9 0 13 5 10 10 -5 8 -11 8 -20 0 -10 -8 -15 -7 -19 2 -3 7 -3 2 2 -12z"/>
<path d="M537 874 c-10 -17 16 -35 44 -31 14 3 25 12 26 23 3 18 2 17 -6 -1
-10 -20 -10 -20 -11 0 -1 18 -1 19 -11 3 -5 -10 -14 -18 -19 -18 -5 0 -10 8
-12 18 -2 11 -6 13 -11 6z"/>
<path d="M620 868 c0 -9 5 -20 10 -23 13 -8 13 5 0 25 -8 13 -10 13 -10 -2z"/>
<path d="M659 866 c8 -10 9 -16 1 -19 -6 -3 -5 -4 2 -3 19 4 20 23 2 30 -14 5
-15 4 -5 -8z"/>
<path d="M690 860 c0 -13 7 -20 19 -20 25 0 38 20 20 31 -23 15 -39 10 -39
-11z m35 0 c3 -5 -1 -10 -9 -10 -9 0 -16 5 -16 10 0 6 4 10 9 10 6 0 13 -4 16
-10z"/>
<path d="M792 860 c0 -14 2 -19 5 -12 2 6 2 18 0 25 -3 6 -5 1 -5 -13z"/>
<path d="M880 870 c20 -13 47 -13 55 0 4 6 -9 10 -32 10 -28 0 -34 -3 -23 -10z"/>
<path d="M1090 865 c7 -8 16 -15 21 -15 5 0 9 7 9 15 0 9 -9 15 -21 15 -18 0
-19 -2 -9 -15z"/>
<path d="M1144 792 c6 -82 5 -91 -11 -95 -16 -4 -16 -5 -1 -6 9 0 19 -9 21
-18 3 -10 5 30 6 89 1 71 -3 109 -11 114 -8 5 -9 -16 -4 -84z"/>
<path d="M1193 845 c0 -22 2 -30 4 -17 2 12 2 30 0 40 -3 9 -5 -1 -4 -23z"/>
<path d="M1262 858 c2 -17 10 -23 28 -23 18 0 26 6 28 23 3 19 -1 22 -28 22
-27 0 -31 -3 -28 -22z m40 -10 c-9 -9 -15 -9 -24 0 -9 9 -7 12 12 12 19 0 21
-3 12 -12z"/>
<path d="M1342 860 c-16 -26 -15 -35 1 -21 10 8 17 7 27 -2 12 -10 12 -9 3 3
-6 8 -12 21 -14 28 -3 8 -8 5 -17 -8z"/>
<path d="M1393 845 c-1 -16 1 -24 4 -18 3 10 10 10 24 2 11 -6 25 -8 32 -5 7
2 4 5 -5 5 -10 1 -18 6 -18 12 0 5 -4 7 -10 4 -5 -3 -10 -1 -10 4 0 19 39 12
60 -11 16 -17 19 -18 15 -5 -4 10 -2 17 4 17 6 0 11 7 11 15 0 11 -12 14 -54
12 -52 -2 -53 -3 -53 -32z"/>
<path d="M1518 873 c6 -2 18 -2 25 0 6 3 1 5 -13 5 -14 0 -19 -2 -12 -5z"/>
<path d="M1570 866 c0 -21 -21 -31 -30 -16 -7 11 -11 10 -23 -2 -14 -14 -10
-15 39 -13 62 2 70 7 54 32 -11 17 -11 17 -6 -2 6 -19 5 -19 -8 -2 -16 21 -26
22 -26 3z"/>
<path d="M1643 851 c5 -23 2 -30 -13 -34 -11 -3 -20 -11 -20 -17 0 -7 8 -10
20 -7 15 4 20 0 20 -14 0 -13 -7 -19 -24 -19 -19 0 -26 6 -29 28 -4 25 -4 25
-6 -5 -1 -31 1 -33 34 -33 l35 0 0 65 c0 41 -4 65 -11 65 -7 0 -9 -11 -6 -29z"/>
<path d="M1672 860 c0 -14 2 -19 5 -12 2 6 2 18 0 25 -3 6 -5 1 -5 -13z"/>
<path d="M1696 813 c3 -37 7 -83 9 -100 3 -27 0 -33 -16 -33 -14 0 -19 7 -19
30 0 28 -2 30 -37 29 -37 -1 -37 -2 -8 -8 27 -5 30 -10 33 -48 2 -33 6 -41 18
-36 9 3 26 0 38 -7 32 -16 71 -10 70 13 -1 9 2 17 7 17 5 0 10 -12 10 -27 2
-24 2 -25 6 -5 4 19 10 22 58 22 54 0 65 8 65 48 0 33 -15 45 -40 32 -18 -10
-24 -9 -36 7 -13 16 -15 14 -12 -29 2 -31 -1 -48 -8 -48 -6 0 -10 10 -9 23 1
12 0 14 -2 5 -3 -14 -15 -18 -51 -19 -43 -1 -45 -1 -19 -11 35 -13 35 -28 -2
-28 -27 0 -28 2 -35 61 -3 34 -6 86 -6 115 0 29 -4 56 -10 59 -6 4 -7 -20 -4
-62z m224 -110 c0 -20 -5 -23 -35 -23 -30 0 -35 3 -35 23 0 19 5 22 35 22 30
0 35 -3 35 -22z"/>
<path d="M1786 865 c4 -8 8 -15 10 -15 2 0 4 7 4 15 0 8 -4 15 -10 15 -5 0 -7
-7 -4 -15z"/>
<path d="M1812 855 c0 -16 2 -22 5 -12 2 9 2 23 0 30 -3 6 -5 -1 -5 -18z"/>
<path d="M1832 855 c0 -16 2 -22 5 -12 2 9 2 23 0 30 -3 6 -5 -1 -5 -18z"/>
<path d="M1917 853 c4 -16 8 -42 7 -60 0 -18 3 -30 8 -27 4 3 8 12 8 20 0 8 4
13 9 10 5 -4 12 0 14 6 4 9 6 10 6 1 1 -6 -3 -15 -9 -18 -5 -3 -10 -11 -10
-17 0 -7 4 -7 13 -1 6 6 20 9 30 8 13 -3 17 4 17 27 0 31 -2 32 -60 17 -11 -3
-16 5 -18 29 -2 17 -8 32 -13 32 -5 0 -6 -11 -2 -27z m83 -47 c0 -3 -4 -8 -10
-11 -5 -3 -10 -1 -10 4 0 6 5 11 10 11 6 0 10 -2 10 -4z"/>
<path d="M1941 853 c1 -23 3 -24 6 -6 4 19 8 21 29 13 14 -6 28 -10 32 -10 10
1 -20 17 -45 24 -20 7 -23 4 -22 -21z"/>
<path d="M2145 870 c-5 -8 2 -20 16 -32 22 -18 22 -19 3 -13 -18 5 -20 2 -15
-27 4 -26 6 -28 9 -10 4 28 17 28 36 0 9 -13 16 -17 16 -9 0 8 -8 20 -17 28
-17 14 -17 14 0 9 14 -4 17 1 17 29 0 30 -3 35 -22 34 -17 -1 -19 -2 -5 -6 9
-2 17 -14 17 -25 0 -25 -21 -19 -36 11 -8 16 -14 19 -19 11z"/>
<path d="M2224 866 c-3 -7 -4 -33 -1 -57 3 -44 4 -43 5 9 l2 52 39 0 c26 0 41
-5 45 -16 8 -22 8 -26 -3 -19 -14 8 -24 -32 -13 -50 7 -13 11 -7 21 25 7 23
15 49 18 59 4 14 3 14 -6 1 -7 -10 -11 -11 -11 -2 0 18 -89 16 -96 -2z"/>
<path d="M2370 870 c0 -5 5 -10 10 -10 6 0 10 5 10 10 0 6 -4 10 -10 10 -5 0
-10 -4 -10 -10z"/>
<path d="M2404 871 c-2 -2 -4 -15 -4 -29 0 -22 3 -24 35 -18 33 6 35 5 35 -19
0 -17 -7 -28 -22 -34 -21 -8 -21 -8 6 -15 34 -8 75 2 55 14 -22 14 4 60 30 53
18 -4 21 -1 21 23 l0 29 -76 0 c-41 0 -77 -2 -80 -4z m50 -10 c15 -6 16 -10 7
-16 -8 -4 -17 -2 -22 6 -7 11 -9 10 -9 -3 0 -10 -4 -18 -10 -18 -5 0 -10 9
-10 20 0 21 12 24 44 11z m61 -9 c-14 -12 -20 -29 -20 -54 0 -21 -4 -38 -10
-38 -6 0 -9 21 -7 49 3 42 7 51 25 54 12 2 24 5 27 5 3 1 -4 -6 -15 -16z"/>
<path d="M2579 878 c-8 -26 -8 -58 1 -53 6 3 8 11 5 16 -4 5 1 9 9 9 10 0 13
-6 9 -17 -4 -11 -3 -14 5 -9 20 12 13 36 -10 37 -22 1 -22 1 2 9 24 8 24 8 3
9 -13 1 -23 0 -24 -1z"/>
<path d="M2650 855 c-6 -15 -13 -32 -16 -36 -3 -5 -1 -9 3 -9 10 0 35 61 28
68 -2 3 -9 -8 -15 -23z"/>
<path d="M2683 860 c-18 -28 -16 -49 2 -26 13 18 15 18 15 3 0 -10 -11 -22
-25 -27 -14 -5 -25 -15 -24 -22 0 -10 2 -10 6 0 2 6 12 12 22 12 12 0 24 -22
44 -82 29 -89 26 -104 -21 -111 -24 -4 -24 -4 6 -6 17 0 32 4 32 9 0 6 5 10
11 10 6 0 8 -8 5 -17 -3 -10 -8 -34 -11 -53 -3 -19 -11 -38 -18 -42 -9 -6 -9
-8 0 -8 6 0 14 -10 16 -22 4 -21 4 -21 4 2 0 36 14 102 25 120 8 12 8 11 4 -4
-9 -26 15 -100 26 -84 6 8 7 0 3 -22 -5 -26 -4 -31 4 -20 9 12 11 11 11 -6 0
-20 -17 -34 -40 -34 -5 0 -11 10 -13 23 -4 18 -4 17 -6 -6 -1 -25 2 -28 25
-25 54 6 53 22 -21 248 -62 186 -71 208 -82 190z"/>
<path d="M2744 863 c3 -10 31 -97 61 -193 73 -230 118 -413 116 -475 -3 -76
10 -195 21 -195 5 0 7 4 4 9 -3 4 -6 57 -7 117 0 60 -5 125 -10 144 -4 19 -18
76 -29 125 -26 116 -143 484 -153 485 -5 0 -6 -8 -3 -17z"/>
<path d="M2040 862 c23 -4 23 -5 6 -12 -19 -6 -19 -7 2 -12 15 -4 22 -2 22 7
0 8 10 16 23 18 12 2 0 4 -28 4 -27 0 -39 -2 -25 -5z"/>
<path d="M2123 820 c0 -30 2 -43 4 -27 2 15 2 39 0 55 -2 15 -4 2 -4 -28z"/>
<path d="M510 840 c0 -5 5 -10 10 -10 6 0 10 5 10 10 0 6 -4 10 -10 10 -5 0
-10 -4 -10 -10z"/>
<path d="M986 841 c47 -6 50 -8 49 -33 -2 -25 1 -28 32 -28 32 0 34 2 31 28
-3 30 -7 31 -103 36 -57 4 -57 3 -9 -3z m88 -28 c-5 -5 -12 -12 -16 -18 -4 -6
-8 -2 -8 8 0 9 7 17 17 17 9 0 12 -3 7 -7z"/>
<path d="M151 814 c0 -11 3 -14 6 -6 3 7 2 16 -1 19 -3 4 -6 -2 -5 -13z"/>
<path d="M613 823 c4 -3 2 -12 -4 -19 -8 -9 -5 -11 10 -7 12 3 21 1 21 -6 0
-6 -6 -11 -14 -11 -8 0 -18 -5 -22 -12 -5 -8 -2 -9 9 -5 10 3 17 2 17 -3 0 -6
-27 -10 -59 -10 -33 0 -62 -4 -66 -9 -3 -6 17 -7 49 -4 l55 6 -5 -34 c-5 -30
-3 -35 15 -36 18 -1 21 4 21 33 0 34 0 34 47 34 56 0 54 8 -4 11 -26 2 -40 7
-39 16 3 16 16 30 16 16 0 -6 8 -10 18 -8 9 2 21 4 25 4 5 1 5 6 2 11 -4 6 -1
17 5 25 10 12 7 14 -19 12 -32 -2 -44 -17 -14 -17 13 0 14 -3 6 -11 -8 -8 -17
-7 -32 3 -12 8 -18 18 -14 21 3 4 -2 7 -12 7 -10 0 -15 -3 -12 -7z m17 -114
c0 -16 -4 -28 -9 -25 -8 5 -3 56 5 56 2 0 4 -14 4 -31z"/>
<path d="M736 817 c3 -8 1 -18 -5 -22 -18 -10 -13 -25 8 -25 15 0 19 6 17 27
-2 15 -8 29 -15 31 -6 2 -9 -3 -5 -11z"/>
<path d="M772 800 c0 -19 2 -27 5 -17 2 9 2 25 0 35 -3 9 -5 1 -5 -18z"/>
<path d="M858 823 c7 -3 16 -2 19 1 4 3 -2 6 -13 5 -11 0 -14 -3 -6 -6z"/>
<path d="M901 814 c0 -11 3 -14 6 -6 3 7 2 16 -1 19 -3 4 -6 -2 -5 -13z"/>
<path d="M920 810 c0 -11 -4 -20 -8 -20 -13 0 -8 -54 6 -63 8 -5 16 -6 19 -3
4 3 2 6 -4 6 -6 0 -9 9 -6 20 3 11 9 20 14 20 5 0 9 -9 9 -20 0 -11 4 -20 8
-20 5 0 9 13 9 30 0 26 -3 29 -23 24 -19 -5 -22 -3 -17 15 4 16 15 21 52 24
l46 3 -52 2 c-47 2 -53 0 -53 -18z"/>
<path d="M1742 821 c-24 -15 -10 -46 22 -49 16 -2 32 0 37 5 5 5 0 9 -12 10
-24 2 -35 10 -26 19 4 4 12 2 19 -3 7 -6 23 -9 36 -7 12 2 22 -1 22 -6 0 -6
-5 -10 -12 -10 -6 0 -9 -3 -5 -6 3 -4 17 2 30 13 19 15 22 21 11 30 -10 10
-13 10 -17 0 -3 -9 -11 -9 -39 1 -40 14 -48 15 -66 3z"/>
<path d="M1897 817 c-4 -10 -2 -17 5 -17 7 0 6 -5 -2 -15 -7 -9 -8 -15 -2 -15
14 0 20 22 12 44 -6 17 -7 18 -13 3z"/>
<path d="M2033 823 c-7 -3 -12 -17 -12 -31 1 -17 3 -21 6 -9 2 9 9 17 14 17 6
0 7 -9 4 -20 -4 -11 -2 -20 4 -20 6 0 11 9 11 20 0 11 5 20 10 20 6 0 10 4 10
9 0 11 -30 19 -47 14z"/>
<path d="M1228 813 c12 -2 32 -2 45 0 12 2 2 4 -23 4 -25 0 -35 -2 -22 -4z"/>
<path d="M1540 814 c25 -4 30 -10 30 -35 0 -27 -2 -29 -40 -29 -38 0 -40 1
-41 33 l-1 32 -8 -35 c-5 -19 -10 -53 -11 -75 l-2 -40 -44 4 c-24 2 -43 -1
-43 -7 0 -6 22 -12 49 -14 49 -3 50 -2 49 25 -1 37 9 45 62 50 41 4 41 4 -8 3
-28 -1 -52 2 -52 7 0 4 23 7 51 7 l50 0 -3 38 c-3 34 -6 37 -35 40 -33 2 -33
2 -3 -4z"/>
<path d="M188 803 c6 -2 18 -2 25 0 6 3 1 5 -13 5 -14 0 -19 -2 -12 -5z"/>
<path d="M1348 803 c34 -3 42 -8 42 -24 0 -16 -7 -19 -50 -19 -47 0 -55 5 -51
33 0 4 -3 7 -9 7 -5 0 -10 -11 -10 -25 0 -24 2 -25 65 -25 l65 0 0 30 c0 29
-1 30 -47 28 l-48 -1 43 -4z"/>
<path d="M1408 753 l-3 -58 -102 -3 -103 -3 0 52 c0 46 2 51 20 46 11 -3 20
-1 20 4 0 5 -11 9 -25 9 -24 0 -25 -3 -25 -60 l0 -60 103 0 c67 0 107 4 115
12 7 7 12 34 12 60 0 41 3 48 19 48 11 0 22 -6 24 -12 3 -8 6 -6 6 5 1 12 -7
17 -29 17 -28 0 -29 -1 -32 -57z"/>
<path d="M2365 799 c-4 -6 -5 -12 -2 -15 2 -3 7 2 10 11 7 17 1 20 -8 4z"/>
<path d="M2619 791 c11 -11 22 -41 26 -71 8 -59 10 -60 18 -5 5 30 4 35 -3 20
-9 -17 -10 -16 -7 8 3 15 0 27 -4 27 -5 0 -9 6 -9 14 0 8 -7 17 -16 20 -25 9
-25 7 -5 -13z"/>
<path d="M1250 781 c0 -11 -3 -26 -6 -35 -5 -14 3 -16 57 -14 l64 2 -56 3
c-55 4 -55 4 -51 33 2 17 2 30 -2 30 -3 0 -6 -9 -6 -19z"/>
<path d="M2530 790 c-18 -6 -20 -8 -7 -9 10 -1 16 -5 13 -10 -4 -5 3 -7 15 -4
15 4 17 8 8 13 -8 6 -4 10 12 13 17 3 19 4 4 5 -11 0 -31 -4 -45 -8z"/>
<path d="M242 770 c0 -14 2 -19 5 -12 2 6 2 18 0 25 -3 6 -5 1 -5 -13z"/>
<path d="M1860 780 c0 -5 5 -10 11 -10 5 0 7 5 4 10 -3 6 -8 10 -11 10 -2 0
-4 -4 -4 -10z"/>
<path d="M2075 784 c13 -5 6 -87 -8 -95 -17 -11 87 -21 113 -11 24 9 24 10
-12 17 -34 6 -38 11 -38 36 0 21 -5 29 -17 29 -14 0 -15 -2 -5 -9 16 -10 12
-53 -5 -59 -9 -2 -13 9 -13 37 0 26 5 41 13 41 8 0 7 4 -3 10 -8 5 -19 9 -25
9 -6 0 -6 -2 0 -5z m78 -101 c-7 -2 -19 -2 -25 0 -7 3 -2 5 12 5 14 0 19 -2
13 -5z"/>
<path d="M2595 746 c-4 -25 -5 -51 -2 -58 3 -7 6 1 6 19 1 17 5 43 11 57 5 15
6 26 0 26 -5 0 -12 -20 -15 -44z"/>
<path d="M165 750 c3 -4 26 -11 52 -15 27 -4 53 -10 58 -14 6 -4 20 -2 33 4
22 12 22 13 -15 13 -21 1 -59 5 -85 10 -26 5 -45 6 -43 2z"/>
<path d="M1030 750 c0 -5 5 -10 10 -10 6 0 10 5 10 10 0 6 -4 10 -10 10 -5 0
-10 -4 -10 -10z"/>
<path d="M2144 735 c1 -23 16 -37 16 -15 0 17 18 11 22 -7 3 -11 6 -5 9 15 5
29 3 32 -22 32 -22 0 -27 -4 -25 -25z"/>
<path d="M2215 745 c-3 -8 -7 -22 -10 -30 -2 -9 2 -15 11 -15 9 0 12 5 8 12
-5 8 -3 8 7 2 23 -15 89 -13 89 2 0 8 -7 11 -17 8 -17 -5 -17 -5 0 6 23 15 13
30 -21 30 -18 0 -23 -3 -14 -8 13 -9 6 -42 -9 -42 -5 0 -8 3 -8 8 6 38 -26 62
-36 27z"/>
<path d="M2331 725 c0 -16 3 -24 6 -17 4 10 8 10 21 0 13 -11 15 -10 9 4 -4
12 -2 15 9 11 7 -3 14 -9 14 -14 0 -5 12 -9 28 -9 18 0 23 3 14 8 -7 5 -10 16
-7 24 4 9 2 19 -4 23 -6 3 -11 0 -11 -7 0 -8 -3 -9 -8 -3 -4 6 -22 10 -39 10
-30 0 -33 -2 -32 -30z"/>
<path d="M1750 738 c0 -4 14 -8 30 -8 17 0 30 2 30 4 0 2 -13 6 -30 8 -16 3
-30 1 -30 -4z"/>
<path d="M1947 743 c-4 -3 -7 -20 -6 -37 l1 -31 9 34 c10 33 8 47 -4 34z"/>
<path d="M2529 725 c0 -5 -2 -20 -3 -32 -2 -13 1 -23 6 -23 7 0 12 15 9 33 0
4 4 7 9 7 6 0 10 -6 9 -12 -3 -25 1 -39 9 -34 5 3 8 15 6 28 -1 13 -3 28 -3
33 -1 6 -10 11 -21 11 -11 0 -20 -5 -21 -11z"/>
<path d="M377 714 c4 -11 3 -15 -5 -10 -6 3 -13 2 -16 -3 -4 -5 2 -8 11 -7 20
3 28 21 14 31 -7 4 -8 0 -4 -11z"/>
<path d="M720 705 c0 -18 -5 -25 -20 -25 -18 0 -19 -3 -9 -22 26 -49 34 -46
36 14 1 32 0 58 -3 58 -2 0 -4 -11 -4 -25z"/>
<path d="M2612 700 c0 -19 2 -27 5 -17 2 9 2 25 0 35 -3 9 -5 1 -5 -18z"/>
<path d="M195 709 c-33 -5 -66 -7 -72 -4 -9 3 -13 -8 -13 -35 0 -29 4 -40 15
-40 8 0 15 -4 15 -8 0 -5 11 -14 25 -20 23 -11 25 -9 24 11 0 12 -3 16 -6 9
-8 -21 -63 18 -63 45 0 21 4 23 58 23 36 0 66 6 78 15 21 16 22 16 -61 4z"/>
<path d="M843 665 c0 -33 2 -45 4 -27 2 18 2 45 0 60 -2 15 -4 0 -4 -33z"/>
<path d="M1245 710 c-3 -5 -1 -10 4 -10 6 0 11 5 11 10 0 6 -2 10 -4 10 -3 0
-8 -4 -11 -10z"/>
<path d="M993 703 c15 -2 37 -2 50 0 12 2 0 4 -28 4 -27 0 -38 -2 -22 -4z"/>
<path d="M43 685 c2 -11 28 -34 39 -35 4 0 7 10 6 23 -1 16 -8 22 -24 22 -12
0 -22 -4 -21 -10z m37 -15 c0 -5 -2 -10 -4 -10 -3 0 -8 5 -11 10 -3 6 -1 10 4
10 6 0 11 -4 11 -10z"/>
<path d="M740 680 c0 -11 4 -20 8 -20 5 0 17 -7 28 -16 16 -13 16 -15 2 -10
-25 7 -22 -1 3 -15 17 -8 20 -8 14 1 -5 9 -1 10 14 5 19 -6 21 -3 21 34 l0 41
-45 0 c-38 0 -45 -3 -45 -20z m80 -14 c0 -26 -11 -28 -47 -8 -33 18 -28 32 12
32 30 0 35 -3 35 -24z"/>
<path d="M917 687 c-4 -11 -5 -23 -1 -28 3 -5 53 -8 112 -7 l107 2 -102 3
c-96 4 -102 5 -105 26 -3 20 -4 20 -11 4z"/>
<path d="M1491 683 c-1 -22 3 -23 67 -23 37 0 74 5 82 10 10 7 -8 10 -62 10
-52 0 -78 4 -81 13 -3 6 -6 2 -6 -10z"/>
<path d="M7 683 c-14 -30 1 -53 53 -80 31 -16 62 -28 70 -25 9 3 7 -2 -4 -10
-17 -14 -18 -22 -10 -77 5 -34 12 -61 16 -59 4 2 14 -6 23 -17 16 -19 16 -19
5 3 -6 12 -15 20 -19 18 -8 -5 -23 115 -16 122 2 2 13 -2 25 -8 18 -9 21 -9
15 0 -5 8 -3 11 6 8 8 -3 13 -10 12 -15 -1 -5 21 -21 48 -36 33 -19 49 -24 49
-15 0 7 -23 25 -51 41 -27 15 -47 32 -44 37 4 6 -1 7 -11 3 -12 -4 -15 -3 -10
5 5 8 1 10 -10 5 -12 -4 -15 -3 -10 5 5 8 2 10 -8 6 -11 -4 -16 0 -17 12 0 11
-3 14 -5 7 -3 -7 -12 -9 -20 -6 -7 3 -11 9 -8 14 3 5 -2 6 -10 3 -21 -8 -72
46 -54 58 9 5 10 8 1 8 -6 0 -14 -3 -16 -7z"/>
<path d="M251 674 c0 -11 3 -14 6 -6 3 7 2 16 -1 19 -3 4 -6 -2 -5 -13z"/>
<path d="M272 665 c0 -16 2 -22 5 -12 2 9 2 23 0 30 -3 6 -5 -1 -5 -18z"/>
<path d="M2013 683 c9 -2 23 -2 30 0 6 3 -1 5 -18 5 -16 0 -22 -2 -12 -5z"/>
<path d="M2395 669 c-4 -6 -5 -12 -2 -15 2 -3 7 2 10 11 7 17 1 20 -8 4z"/>
<path d="M1190 653 c0 -12 3 -14 8 -6 5 7 40 13 87 16 l80 3 -87 2 c-78 2 -88
0 -88 -15z"/>
<path d="M1930 653 c0 -12 3 -14 8 -6 4 6 32 13 62 16 l55 3 -62 2 c-54 2 -63
0 -63 -15z"/>
<path d="M2069 661 c19 -12 26 -91 9 -103 -8 -6 -1 -8 21 -6 19 2 36 9 37 16
1 7 0 8 -3 2 -2 -5 -11 -10 -19 -10 -10 0 -14 14 -14 55 0 50 -2 55 -22 55
-18 0 -20 -2 -9 -9z"/>
<path d="M2298 663 c7 -3 16 -2 19 1 4 3 -2 6 -13 5 -11 0 -14 -3 -6 -6z"/>
<path d="M2698 663 c7 -3 16 -2 19 1 4 3 -2 6 -13 5 -11 0 -14 -3 -6 -6z"/>
<path d="M2141 643 c0 -12 -4 -30 -7 -40 -5 -17 -5 -17 6 0 6 10 9 28 7 40 -4
22 -4 22 -6 0z"/>
<path d="M2524 649 c-4 -8 -3 -10 4 -5 16 9 15 -7 0 -22 -6 -6 -9 -15 -5 -19
4 -4 13 -1 19 5 7 7 16 8 23 2 8 -6 11 -2 11 15 0 14 -3 25 -7 25 -4 0 -14 3
-22 6 -8 3 -18 0 -23 -7z"/>
<path d="M2662 628 c-3 -37 2 -35 12 5 3 15 3 27 -2 27 -4 0 -9 -14 -10 -32z"/>
<path d="M742 625 c0 -16 2 -22 5 -12 2 9 2 23 0 30 -3 6 -5 -1 -5 -18z"/>
<path d="M480 630 c0 -5 5 -10 10 -10 6 0 10 5 10 10 0 6 -4 10 -10 10 -5 0
-10 -4 -10 -10z"/>
<path d="M867 615 c-2 -14 0 -25 4 -25 5 0 9 4 9 9 0 5 11 8 25 7 14 0 25 -5
25 -11 0 -5 5 -3 10 5 8 13 11 13 19 1 7 -11 10 -9 16 10 7 22 8 22 22 3 15
-19 15 -19 11 1 -4 24 -38 34 -38 11 0 -10 -6 -13 -16 -9 -13 5 -13 7 -2 14 8
6 2 8 -18 7 -21 -1 -30 -6 -27 -15 7 -17 -2 -16 -20 2 -13 12 -15 11 -20 -10z"/>
<path d="M1093 633 c9 -2 25 -2 35 0 9 3 1 5 -18 5 -19 0 -27 -2 -17 -5z"/>
<path d="M1153 572 c0 -40 -3 -76 -7 -79 -3 -4 -6 4 -6 16 0 20 -4 22 -42 19
l-43 -3 -5 -65 c-7 -94 -1 -143 17 -136 14 6 73 -19 73 -30 0 -3 -6 -17 -14
-33 -22 -42 -11 -88 12 -51 10 17 10 20 -2 20 -13 0 -12 5 2 30 13 23 24 30
48 30 28 0 31 3 31 31 0 29 -1 30 -14 13 -10 -14 -16 -15 -25 -6 -17 17 -18
39 -2 39 7 0 11 -3 9 -6 -6 -11 140 1 154 13 12 9 13 8 7 -3 -7 -11 3 -12 53
-7 38 4 61 2 61 -4 0 -6 -33 -10 -80 -10 l-80 0 0 -40 c0 -40 0 -40 38 -38 36
1 36 1 5 5 -29 4 -33 8 -33 34 0 19 5 29 15 29 8 0 15 -7 15 -15 0 -8 5 -15
10 -15 6 0 10 7 10 15 0 12 14 15 64 15 53 0 65 3 69 18 4 16 5 16 6 0 1 -14
9 -18 39 -17 27 1 30 3 12 6 -60 11 -34 20 57 21 65 1 91 -2 78 -8 -11 -5 -39
-9 -62 -9 l-43 -1 0 -40 0 -40 48 2 47 1 -42 4 c-40 4 -43 6 -43 33 0 27 2 28
51 32 l51 3 -4 -37 c-2 -21 0 -38 4 -38 5 0 8 18 8 40 0 22 5 40 10 40 12 0
13 -109 2 -142 -10 -27 -4 -118 8 -118 4 0 6 18 3 40 -3 24 -2 40 5 40 6 0 8
30 5 85 l-6 84 79 4 79 3 -77 2 c-113 3 -98 22 20 24 l97 2 -92 3 c-83 3 -93
6 -93 23 0 10 -3 25 -6 34 -5 13 9 16 93 19 l98 3 -104 2 -104 2 7 -40 c6 -36
4 -40 -14 -40 -16 0 -20 7 -20 36 l0 35 -90 -3 c-50 -2 -90 -1 -90 1 0 2 12
19 26 38 32 42 30 92 -4 109 -31 15 -60 7 -79 -23 -14 -21 -14 -28 -2 -51 7
-15 15 -30 17 -34 2 -5 -8 -8 -23 -8 -15 0 -24 4 -20 10 4 6 -5 10 -20 10 -20
0 -26 4 -21 15 3 8 1 15 -4 15 -6 0 -10 -14 -10 -31 l0 -30 56 2 c41 2 58 -1
64 -12 7 -13 -1 -14 -56 -11 l-64 4 2 -38 c1 -35 2 -36 5 -8 l4 31 150 1 149
1 0 -29 0 -29 -111 -3 c-61 -2 -115 0 -120 3 -5 3 -7 13 -3 22 4 10 1 17 -6
17 -6 0 -14 -9 -17 -21 -4 -16 -8 -17 -14 -7 -7 10 -9 9 -9 -4 0 -11 -8 -18
-20 -18 -11 0 -20 6 -20 14 0 8 -7 16 -15 20 -10 4 -15 -1 -15 -14 0 -18 -7
-20 -60 -20 -60 0 -60 0 -60 30 0 34 10 38 100 43 41 2 34 4 -27 5 l-83 2 0
-35 c0 -24 -5 -35 -15 -35 -14 0 -20 24 -16 58 1 6 -3 12 -9 12 -6 0 -8 -4 -5
-10 3 -5 1 -10 -4 -10 -6 0 -11 12 -11 28 0 21 2 24 10 12 7 -11 10 -7 10 18
0 25 4 32 20 32 16 0 20 -7 20 -30 0 -28 2 -30 38 -29 20 0 57 4 82 8 41 8 39
9 -32 10 l-78 1 0 34 c0 30 3 33 25 31 14 -2 25 0 25 5 0 4 -11 11 -25 14 -33
8 -32 34 3 42 48 10 48 12 -1 13 l-49 1 4 -43 c4 -32 1 -44 -9 -44 -14 0 -20
18 -26 77 -2 19 -4 2 -4 -38z m375 -25 c4 -20 -25 -34 -40 -19 -15 15 -1 44
19 40 10 -2 19 -11 21 -21z m-401 -67 c0 -22 -4 -40 -9 -40 -25 0 -23 -4 -26
48 -3 44 -20 12 -20 -38 0 -27 4 -47 9 -44 5 3 9 -1 10 -8 0 -7 5 -3 11 10 15
29 28 28 28 -3 0 -22 -4 -25 -35 -25 l-35 0 0 70 0 70 34 0 c33 0 34 -1 33
-40z m33 -79 c0 -11 -5 -23 -10 -26 -6 -4 -8 -11 -5 -16 4 -5 2 -9 -4 -9 -5 0
-13 5 -16 10 -3 6 -1 10 4 10 6 0 11 11 11 25 0 14 5 25 10 25 6 0 10 -9 10
-19z m-73 -47 c-3 -3 -12 -4 -19 -1 -8 3 -5 6 6 6 11 1 17 -2 13 -5z m52 -14
c28 -14 34 -39 9 -32 -11 2 -22 11 -25 18 -2 7 -12 10 -21 7 -15 -4 -15 -3 -2
6 18 13 17 13 39 1z m582 -157 c-12 -20 -14 -14 -5 12 4 9 9 14 11 11 3 -2 0
-13 -6 -23z"/>
<path d="M1100 491 c0 -11 4 -23 10 -26 6 -4 9 5 8 19 -3 30 -18 35 -18 7z"/>
<path d="M1593 633 c9 -2 23 -2 30 0 6 3 -1 5 -18 5 -16 0 -22 -2 -12 -5z"/>
<path d="M2600 595 c0 -27 2 -46 4 -44 8 8 10 78 3 85 -4 4 -7 -14 -7 -41z"/>
<path d="M278 623 c7 -3 16 -2 19 1 4 3 -2 6 -13 5 -11 0 -14 -3 -6 -6z"/>
<path d="M311 618 c-1 -10 -12 -18 -28 -21 l-28 -4 28 -2 c17 0 27 -7 27 -16
0 -8 5 -15 12 -15 6 0 9 -3 6 -6 -4 -3 -23 -1 -45 5 -34 9 -36 9 -19 -4 10 -8
23 -12 27 -9 5 3 9 0 9 -6 0 -6 5 -8 12 -4 7 5 8 3 4 -5 -5 -7 -15 -10 -25 -7
-12 5 -11 2 3 -9 11 -8 25 -15 30 -15 6 0 4 5 -4 10 -8 5 -10 10 -4 10 16 0
24 36 11 49 -16 16 0 26 18 11 12 -10 21 -10 41 -1 30 13 45 14 24 1 -13 -8
-12 -10 3 -10 14 0 17 5 11 23 -9 31 -14 34 -24 17 -7 -10 -10 -11 -10 -2 0 6
-9 12 -20 12 -11 0 -20 -7 -20 -15 0 -19 -28 -8 -33 13 -4 16 -5 16 -6 0z m69
-17 c0 -6 -4 -13 -10 -16 -5 -3 -10 1 -10 9 0 9 5 16 10 16 6 0 10 -4 10 -9z"/>
<path d="M1045 621 c-3 -5 -1 -12 5 -16 5 -3 10 1 10 9 0 18 -6 21 -15 7z"/>
<path d="M218 613 c12 -2 20 -9 16 -14 -3 -5 -11 -6 -17 -2 -7 4 -5 -1 3 -11
13 -17 14 -17 21 1 12 30 10 33 -18 32 -24 -2 -25 -2 -5 -6z"/>
<path d="M440 595 c0 -22 2 -24 14 -13 9 8 10 15 4 19 -6 4 -5 9 3 12 10 4 9
6 -3 6 -13 1 -18 -7 -18 -24z"/>
<path d="M1291 603 c-5 -10 -12 -17 -15 -15 -12 4 -6 -9 9 -24 12 -13 15 -13
15 -1 0 10 8 13 25 9 29 -5 33 -18 8 -25 -14 -4 -12 -5 5 -6 17 -1 22 4 22 25
0 17 4 23 13 18 9 -6 8 -3 -1 8 -8 9 -20 14 -29 11 -12 -5 -12 -7 -1 -14 9 -6
7 -9 -9 -9 -27 0 -40 19 -22 31 9 6 10 9 2 9 -7 0 -16 -8 -22 -17z"/>
<path d="M1391 590 c-12 -35 -5 -41 9 -7 l9 22 7 -22 c3 -13 10 -23 15 -23 4
0 3 14 -2 30 -6 17 -15 30 -19 30 -4 0 -13 -13 -19 -30z"/>
<path d="M1430 610 c0 -12 8 -12 35 0 18 8 17 9 -7 9 -16 1 -28 -3 -28 -9z"/>
<path d="M1560 604 c0 -9 5 -14 12 -12 18 6 21 28 4 28 -9 0 -16 -7 -16 -16z"/>
<path d="M1608 613 c7 -3 16 -2 19 1 4 3 -2 6 -13 5 -11 0 -14 -3 -6 -6z"/>
<path d="M1660 614 c0 -7 -9 -14 -20 -17 -14 -3 -20 -14 -20 -31 0 -20 -5 -26
-22 -27 -13 0 -17 -3 -10 -6 6 -2 12 -12 13 -21 0 -13 2 -12 9 4 12 31 60 21
60 -12 0 -22 -4 -23 -67 -27 l-68 -3 79 -2 c78 -2 78 -2 72 22 -8 32 2 56 23
56 14 0 14 -2 1 -10 -9 -6 -10 -10 -3 -10 6 0 14 -15 16 -32 l4 -33 1 33 c2
27 6 32 27 32 14 0 25 -6 25 -12 0 -9 3 -10 8 -2 4 6 14 14 22 17 8 3 -6 6
-32 6 -27 1 -48 6 -48 11 0 6 -6 10 -12 10 -7 0 -23 15 -35 33 -13 17 -23 27
-23 21z m6 -39 c-8 -8 -19 -15 -25 -15 -6 0 -11 7 -11 15 0 9 10 15 26 15 23
0 24 -2 10 -15z"/>
<path d="M1711 593 c2 -24 2 -25 6 -5 3 17 11 22 34 22 24 0 29 -4 29 -24 0
-18 -7 -26 -22 -29 -20 -4 -19 -4 5 -6 25 -1 27 2 27 34 0 34 -1 35 -40 35
-37 0 -40 -2 -39 -27z"/>
<path d="M1809 609 c-12 -7 -11 -9 1 -9 11 0 11 -3 2 -12 -7 -7 -12 -19 -12
-27 0 -11 3 -10 14 4 12 16 16 17 30 6 9 -8 16 -9 16 -3 0 6 -6 13 -12 15 -10
4 -10 8 0 15 11 7 9 10 -6 14 -11 3 -26 2 -33 -3z"/>
<path d="M1880 610 c13 -9 13 -11 0 -20 -12 -8 -12 -10 -1 -10 11 0 11 -3 1
-15 -11 -13 -10 -14 4 -9 9 3 16 11 16 16 0 6 13 7 31 3 29 -7 31 -5 26 14 -3
12 -1 19 4 15 5 -3 9 0 9 5 0 6 -9 11 -20 11 -11 0 -20 -7 -20 -15 0 -8 -7
-15 -15 -15 -18 0 -20 16 -2 23 6 3 -1 6 -18 6 -23 1 -27 -2 -15 -9z"/>
<path d="M1985 605 c-3 -8 -7 -21 -9 -29 -3 -8 -15 -16 -28 -18 -13 -2 6 -4
42 -4 36 0 50 1 31 4 -31 3 -33 5 -27 33 6 30 -1 41 -9 14z"/>
<path d="M2253 613 c-7 -3 -13 -11 -13 -19 0 -8 -4 -14 -10 -14 -5 0 -10 -4
-10 -10 0 -18 25 -6 32 15 5 18 6 18 7 -4 1 -16 5 -21 16 -17 8 3 15 0 15 -6
0 -9 3 -9 11 -1 6 6 9 23 7 39 l-4 29 -14 -29 -15 -30 -5 25 c-3 15 -10 24
-17 22z"/>
<path d="M2346 599 c-10 -15 -15 -17 -19 -7 -3 9 -4 8 -3 -2 1 -8 6 -15 13
-15 6 0 15 -3 19 -7 25 -26 66 11 43 38 -16 20 -36 17 -53 -7z m22 1 c-2 -5 2
-9 7 -7 6 1 9 6 7 10 -1 5 2 6 8 2 14 -9 13 -22 -3 -28 -19 -7 -41 8 -33 22 9
14 17 14 14 1z"/>
<path d="M6 597 c3 -10 9 -15 12 -12 3 3 0 11 -7 18 -10 9 -11 8 -5 -6z"/>
<path d="M2166 595 c-3 -9 0 -15 10 -15 9 0 12 5 8 12 -4 7 -3 8 4 4 17 -10
15 -15 -10 -26 -22 -8 -22 -9 4 -7 22 1 27 6 26 24 -3 26 -32 32 -42 8z"/>
<path d="M2449 608 c-8 -32 -3 -48 13 -48 14 0 19 6 16 22 -2 17 -26 39 -29
26z"/>
<path d="M1020 591 c0 -6 5 -13 10 -16 6 -3 10 1 10 9 0 9 -4 16 -10 16 -5 0
-10 -4 -10 -9z"/>
<path d="M2520 564 c0 -14 4 -23 9 -19 5 3 12 1 16 -5 3 -5 16 -10 28 -10 17
0 19 2 8 9 -8 5 -12 18 -8 30 4 18 1 21 -24 21 -24 0 -29 -4 -29 -26z m37 -16
c-3 -7 -5 -2 -5 12 0 14 2 19 5 13 2 -7 2 -19 0 -25z"/>
<path d="M2615 515 c-4 -42 -5 -79 -2 -81 3 -3 8 29 12 71 4 42 5 78 2 81 -2
3 -8 -29 -12 -71z"/>
<path d="M2662 560 c0 -19 2 -27 5 -17 2 9 2 25 0 35 -3 9 -5 1 -5 -18z"/>
<path d="M2682 563 c-1 -17 -5 -38 -8 -46 -4 -10 0 -15 10 -13 19 3 34 16 18
16 -6 0 -13 17 -15 38 -3 34 -4 35 -5 5z"/>
<path d="M943 554 c-11 -24 -1 -35 13 -13 4 7 23 9 50 5 26 -3 44 -2 44 4 0 6
7 10 15 10 8 0 15 5 15 10 0 7 -8 6 -22 -1 -25 -14 -89 -13 -98 1 -3 5 -10 -2
-17 -16z"/>
<path d="M87 493 c6 -109 11 -113 12 -10 1 48 -3 87 -7 87 -5 0 -7 -35 -5 -77z"/>
<path d="M368 553 c6 -2 18 -2 25 0 6 3 1 5 -13 5 -14 0 -19 -2 -12 -5z"/>
<path d="M1393 543 c9 -2 23 -2 30 0 6 3 -1 5 -18 5 -16 0 -22 -2 -12 -5z"/>
<path d="M2213 515 c0 -22 2 -30 4 -17 2 12 2 30 0 40 -3 9 -5 -1 -4 -23z"/>
<path d="M2258 543 c7 -3 16 -2 19 1 4 3 -2 6 -13 5 -11 0 -14 -3 -6 -6z"/>
<path d="M342 516 c1 -14 6 -22 10 -20 4 3 4 12 1 21 -5 13 0 15 30 11 21 -2
37 0 37 4 0 4 -18 8 -40 8 -36 0 -40 -2 -38 -24z"/>
<path d="M436 532 c-3 -5 1 -9 9 -9 8 0 12 4 9 9 -3 4 -7 8 -9 8 -2 0 -6 -4
-9 -8z"/>
<path d="M985 529 c-6 -8 -4 -10 5 -4 8 5 11 3 8 -6 -3 -8 -10 -13 -16 -12 -7
2 -9 -4 -5 -14 4 -10 2 -14 -5 -9 -6 3 -14 1 -18 -5 -4 -8 -3 -9 4 -5 7 4 12
1 12 -6 1 -7 7 -2 15 12 7 14 17 24 22 24 9 -2 5 17 -7 29 -4 5 -11 3 -15 -4z"/>
<path d="M1853 533 c15 -2 37 -2 50 0 12 2 0 4 -28 4 -27 0 -38 -2 -22 -4z"/>
<path d="M1928 505 c-2 -19 0 -35 4 -35 4 0 8 13 8 30 0 28 1 29 58 33 l57 3
-61 2 -62 2 -4 -35z"/>
<path d="M2092 505 c0 -22 2 -32 5 -22 2 9 11 17 19 17 8 0 15 -8 15 -17 1
-10 5 -2 8 17 8 43 8 44 -17 31 -15 -8 -22 -8 -25 2 -3 6 -5 -6 -5 -28z"/>
<path d="M478 523 c7 -3 16 -2 19 1 4 3 -2 6 -13 5 -11 0 -14 -3 -6 -6z"/>
<path d="M2233 485 c0 -22 2 -30 4 -17 2 12 2 30 0 40 -3 9 -5 -1 -4 -23z"/>
<path d="M406 498 c3 -5 10 -6 15 -3 13 9 11 12 -6 12 -8 0 -12 -4 -9 -9z"/>
<path d="M186 487 c3 -10 9 -15 12 -12 3 3 0 11 -7 18 -10 9 -11 8 -5 -6z"/>
<path d="M294 484 c2 -10 8 -20 14 -22 7 -2 9 -9 6 -14 -4 -7 -2 -8 5 -4 6 4
36 -6 66 -23 37 -21 55 -27 55 -18 0 7 -15 21 -32 30 -18 9 -52 28 -75 42 -35
22 -41 24 -39 9z m42 -20 c18 -14 18 -14 -6 -3 -31 14 -36 19 -24 19 6 0 19
-7 30 -16z"/>
<path d="M365 490 c-4 -6 -3 -10 2 -9 21 4 34 -2 27 -13 -4 -7 -3 -8 4 -4 16
10 15 14 -7 26 -14 7 -22 7 -26 0z"/>
<path d="M2634 455 c1 -34 4 -39 21 -37 24 5 21 0 28 40 4 18 2 32 -3 32 -6 0
-10 -13 -10 -30 0 -42 -27 -40 -33 3 -4 26 -4 24 -3 -8z"/>
<path d="M145 471 c-2 -3 5 -17 16 -30 10 -13 19 -19 19 -14 0 5 -6 15 -12 22
-11 11 -10 13 4 8 11 -4 15 -2 12 7 -5 13 -32 18 -39 7z"/>
<path d="M419 463 c-11 -15 -11 -16 1 -5 18 15 34 16 24 0 -4 -7 -3 -8 4 -4 7
4 12 11 12 17 0 15 -27 10 -41 -8z"/>
<path d="M3 455 c0 -20 50 -66 63 -57 6 4 -5 20 -26 39 -24 21 -37 27 -37 18z
m37 -30 c13 -14 21 -25 18 -25 -2 0 -15 11 -28 25 -13 14 -21 25 -18 25 2 0
15 -11 28 -25z"/>
<path d="M2486 455 c-3 -8 -1 -15 4 -15 6 0 10 7 10 15 0 8 -2 15 -4 15 -2 0
-6 -7 -10 -15z"/>
<path d="M1968 453 c23 -2 59 -2 80 0 20 2 1 4 -43 4 -44 0 -61 -2 -37 -4z"/>
<path d="M2090 441 c0 -14 -5 -18 -20 -14 -16 4 -20 0 -20 -21 0 -17 -4 -25
-11 -21 -6 4 -8 13 -5 21 3 8 2 14 -2 15 -4 0 -15 2 -24 4 -10 2 -17 0 -17 -3
3 -20 -2 -42 -10 -42 -4 0 -6 11 -3 25 4 22 1 25 -21 23 -14 -1 -23 -7 -20
-12 4 -5 -1 -7 -10 -3 -9 3 -19 2 -21 -2 -9 -14 6 -21 25 -10 20 10 26 0 9
-17 -7 -7 16 -11 74 -11 l84 -1 0 44 c0 24 -2 44 -4 44 -2 0 -4 -9 -4 -19z
m-83 -53 c-3 -8 -6 -5 -6 6 -1 11 2 17 5 13 3 -3 4 -12 1 -19z m73 18 c0 -3
-4 -8 -10 -11 -5 -3 -10 -1 -10 4 0 6 5 11 10 11 6 0 10 -2 10 -4z"/>
<path d="M2168 453 c12 -2 30 -2 40 0 9 3 -1 5 -23 4 -22 0 -30 -2 -17 -4z"/>
<path d="M2691 443 c-1 -20 4 -23 32 -22 29 2 29 2 5 6 -15 2 -29 12 -31 21
-3 12 -5 10 -6 -5z"/>
<path d="M2308 443 c6 -2 18 -2 25 0 6 3 1 5 -13 5 -14 0 -19 -2 -12 -5z"/>
<path d="M2113 411 c0 -11 5 -17 9 -15 4 3 8 0 8 -5 0 -6 -4 -11 -10 -11 -5 0
-10 -4 -10 -10 0 -5 7 -10 15 -10 8 0 15 7 15 15 0 8 5 15 10 15 6 0 10 9 10
20 0 15 -7 20 -24 20 -18 0 -24 -5 -23 -19z"/>
<path d="M2179 421 c11 -7 11 -9 0 -14 -10 -4 -10 -6 -1 -6 20 -2 14 -21 -7
-21 -12 0 -20 -7 -19 -17 0 -10 -2 -97 -5 -193 l-5 -175 10 173 c10 170 11
172 34 172 12 0 26 5 29 10 4 7 -2 9 -19 4 -16 -4 -26 -2 -26 5 0 6 12 11 28
12 15 0 21 3 15 6 -7 2 -13 9 -13 14 0 6 4 8 9 4 6 -3 9 4 8 15 -1 14 -8 20
-27 20 -18 0 -21 -3 -11 -9z"/>
<path d="M2231 405 c-1 -26 3 -30 24 -30 21 0 25 5 25 28 0 18 -5 27 -16 27
-10 0 -14 -6 -11 -15 4 -8 2 -17 -3 -20 -5 -3 -11 5 -13 17 -3 18 -5 17 -6 -7z"/>
<path d="M2308 423 c-10 -3 -18 -13 -18 -24 0 -19 1 -19 16 -5 8 9 18 16 22
16 3 0 1 -5 -6 -12 -15 -15 -16 -32 -2 -23 6 3 10 1 10 -4 0 -14 77 -15 85 -2
3 6 -13 9 -37 8 -39 -2 -43 0 -40 20 3 24 -5 31 -30 26z"/>
<path d="M2836 390 c5 -25 9 -62 8 -82 0 -21 3 -32 7 -26 4 6 6 -26 4 -73 l-4
-84 8 75 c8 69 -9 213 -26 230 -3 3 -1 -15 3 -40z"/>
<path d="M292 404 c-7 -8 -9 -14 -3 -14 5 0 7 -9 4 -20 -5 -17 -1 -20 28 -19
31 2 31 2 7 6 -31 5 -35 15 -13 33 8 7 15 18 15 24 0 6 -4 5 -9 -3 -5 -7 -10
-9 -12 -3 -2 6 -9 4 -17 -4z"/>
<path d="M1480 405 c0 -8 5 -15 10 -15 6 0 10 7 10 15 0 8 -4 15 -10 15 -5 0
-10 -7 -10 -15z"/>
<path d="M2460 409 c-41 -5 -84 -11 -95 -13 -31 -7 143 4 205 13 55 8 55 9 10
8 -25 0 -79 -3 -120 -8z"/>
<path d="M121 383 c0 -17 -7 -33 -13 -36 -32 -11 8 -18 99 -18 163 0 185 5 53
11 l-125 5 -6 35 -6 35 -2 -32z"/>
<path d="M2720 403 c-32 -6 -40 -19 -40 -65 0 -35 -2 -38 -30 -38 -26 0 -30
-4 -30 -26 0 -14 4 -23 9 -19 5 3 12 1 16 -5 11 -18 25 -10 25 15 0 14 5 25
10 25 6 0 10 14 10 30 0 23 5 30 19 30 11 0 23 5 26 10 4 7 -2 9 -19 4 -20 -5
-25 -3 -21 8 4 9 30 19 63 25 42 7 48 10 22 10 -19 0 -46 -2 -60 -4z m-63
-145 c-3 -7 -5 -2 -5 12 0 14 2 19 5 13 2 -7 2 -19 0 -25z"/>
<path d="M2559 393 l-36 -4 -7 -76 c-10 -121 -10 -119 27 -120 19 0 23 1 10 4
-22 4 -23 9 -23 94 l0 89 38 0 c20 0 44 5 52 10 16 11 13 11 -61 3z"/>
<path d="M2648 393 c6 -2 18 -2 25 0 6 3 1 5 -13 5 -14 0 -19 -2 -12 -5z"/>
<path d="M2465 380 l-30 -8 32 -1 c27 -1 32 -5 36 -28 3 -23 4 -21 6 10 0 20
-2 36 -6 36 -5 -1 -21 -5 -38 -9z"/>
<path d="M2636 354 c-4 -14 -5 -29 -2 -31 3 -3 8 7 12 21 3 15 4 29 1 32 -2 3
-8 -7 -11 -22z"/>
<path d="M37 353 c55 -5 55 -21 1 -26 l-43 -4 48 -1 48 -2 -25 -42 c-14 -24
-31 -43 -38 -43 -13 0 -15 -5 -22 -83 -4 -34 -1 -42 12 -42 15 -1 14 -3 -3
-16 -11 -9 -14 -14 -6 -12 22 6 39 39 24 45 -7 3 -13 11 -13 19 0 12 4 12 24
-3 16 -12 20 -20 12 -26 -7 -5 -4 -14 13 -27 l23 -20 -23 -1 c-13 -1 -27 -1
-31 0 -5 0 -8 -11 -7 -27 0 -15 3 -22 5 -15 4 8 13 9 29 3 27 -10 38 0 28 26
-4 12 -3 15 5 10 7 -4 12 -15 12 -24 0 -15 2 -15 10 -2 11 17 13 37 3 27 -12
-12 -54 35 -43 48 7 8 2 16 -15 25 -14 7 -25 17 -25 21 0 5 18 36 40 70 22 34
40 67 40 72 0 6 -21 -22 -46 -61 -25 -40 -50 -72 -55 -72 -5 0 10 30 33 66 23
37 42 79 43 95 2 29 1 29 -49 27 -50 -1 -50 -2 -9 -5z m48 -303 c3 -6 -3 -10
-14 -10 -12 0 -21 5 -21 10 0 6 6 10 14 10 8 0 18 -4 21 -10z"/>
<path d="M228 353 c12 -2 30 -2 40 0 9 3 -1 5 -23 4 -22 0 -30 -2 -17 -4z"/>
<path d="M368 353 c7 -3 16 -2 19 1 4 3 -2 6 -13 5 -11 0 -14 -3 -6 -6z"/>
<path d="M2258 353 c12 -2 30 -2 40 0 9 3 -1 5 -23 4 -22 0 -30 -2 -17 -4z"/>
<path d="M2750 350 c-8 -5 -10 -10 -5 -10 6 0 17 5 25 10 8 5 11 10 5 10 -5 0
-17 -5 -25 -10z"/>
<path d="M867 343 c-4 -3 -7 -11 -7 -17 0 -7 3 -7 8 0 4 7 18 14 32 17 l25 4
-26 2 c-14 0 -29 -2 -32 -6z"/>
<path d="M943 343 c10 -3 17 -14 17 -29 0 -15 6 -24 15 -24 10 0 15 10 15 28
0 24 -4 28 -32 29 -18 1 -25 -1 -15 -4z"/>
<path d="M1008 343 c6 -2 18 -2 25 0 6 3 1 5 -13 5 -14 0 -19 -2 -12 -5z"/>
<path d="M1231 328 c0 -13 3 -17 6 -10 9 24 41 13 46 -15 4 -21 4 -19 3 7 -1
30 -5 35 -28 38 -24 3 -28 0 -27 -20z"/>
<path d="M1923 342 c33 -3 37 -6 37 -32 0 -15 6 -31 13 -34 10 -5 10 -7 0 -12
-15 -7 -18 -64 -3 -64 6 0 10 14 10 30 0 28 9 36 35 30 6 -1 6 2 2 7 -5 4 -14
8 -20 8 -7 0 -13 15 -15 33 l-3 32 70 0 71 0 0 -70 c0 -66 -1 -70 -22 -70 -13
0 -30 -5 -38 -11 -12 -8 -10 -9 10 -5 14 3 33 6 42 6 14 0 17 13 20 80 l3 80
-125 -2 c-69 -1 -108 -4 -87 -6z"/>
<path d="M2426 337 c3 -10 9 -15 12 -12 3 3 0 11 -7 18 -10 9 -11 8 -5 -6z"/>
<path d="M2785 340 c-17 -7 -17 -9 -2 -9 18 -1 25 -31 6 -31 -5 0 -7 -5 -4
-11 10 -15 19 -3 21 31 1 17 1 30 1 29 -1 0 -11 -4 -22 -9z"/>
<path d="M1560 306 c0 -20 -6 -25 -32 -29 -32 -4 -32 -4 5 -5 35 -2 37 0 37
28 0 17 -2 30 -5 30 -3 0 -5 -11 -5 -24z"/>
<path d="M2221 304 c-1 -32 22 -64 33 -45 4 5 2 12 -4 16 -5 3 -11 3 -11 -2
-1 -4 -5 8 -9 27 l-7 35 -2 -31z"/>
<path d="M2410 314 c0 -10 5 -26 10 -34 8 -11 9 -7 4 15 -8 37 -14 45 -14 19z"/>
<path d="M2821 314 c0 -11 3 -14 6 -6 3 7 2 16 -1 19 -3 4 -6 -2 -5 -13z"/>
<path d="M1480 301 c0 -17 -8 -21 -52 -24 l-53 -3 58 -2 c55 -2 57 -1 57 23 0
14 -2 25 -5 25 -3 0 -5 -9 -5 -19z"/>
<path d="M2035 310 c4 -6 11 -8 16 -5 14 9 11 15 -7 15 -8 0 -12 -5 -9 -10z"/>
<path d="M2311 304 c0 -11 3 -14 6 -6 3 7 2 16 -1 19 -3 4 -6 -2 -5 -13z"/>
<path d="M1050 300 c0 -6 7 -10 15 -10 8 0 15 2 15 4 0 2 -7 6 -15 10 -8 3
-15 1 -15 -4z"/>
<path d="M2559 306 c-1 0 -3 -13 -5 -28 -2 -22 1 -28 17 -28 10 0 22 0 26 0 4
0 8 10 10 24 3 18 -2 25 -22 28 -14 3 -26 5 -26 4z m26 -25 c3 -5 1 -12 -5
-16 -5 -3 -10 1 -10 9 0 18 6 21 15 7z"/>
<path d="M1215 280 c-4 -6 -10 -8 -15 -5 -8 5 -41 -45 -40 -60 0 -3 -3 -4 -6
-2 -3 1 -10 -6 -15 -15 -9 -17 -12 -17 -34 -2 -14 9 -25 21 -25 28 0 6 5 4 11
-4 9 -13 10 -13 6 0 -6 23 -32 18 -35 -8 -2 -12 -8 -20 -13 -17 -5 4 -9 2 -9
-3 0 -18 13 -21 28 -6 14 14 16 14 24 0 11 -19 44 -21 52 -3 5 9 7 9 12 -1 8
-16 24 -5 24 17 0 10 7 18 14 18 12 0 13 -5 4 -21 -10 -18 -9 -19 4 -8 13 10
17 10 20 1 3 -9 11 -6 26 9 17 17 29 21 50 16 26 -6 26 -6 7 9 -11 9 -15 16
-10 17 14 0 73 -40 60 -41 -5 0 -21 -2 -35 -4 -14 -1 -31 2 -37 7 -9 7 -13 7
-13 -1 0 -12 1 -13 49 -17 19 -1 38 -8 42 -16 5 -7 9 -9 9 -4 0 6 6 1 14 -9
12 -17 11 -23 -11 -52 -23 -29 -28 -32 -42 -20 -32 28 -45 30 -21 4 33 -35 44
-34 69 7 12 19 29 40 38 47 15 13 14 11 -1 -21 -12 -25 -13 -30 -2 -17 14 18
16 17 58 -7 87 -53 123 -67 126 -51 3 13 7 13 31 1 15 -8 33 -22 40 -30 8 -9
18 -16 23 -16 17 0 -28 38 -72 61 -25 13 -47 26 -50 29 -3 3 -17 13 -32 23
-26 16 -63 14 -52 -4 3 -5 -2 -6 -11 -3 -14 6 -14 8 1 18 15 11 14 14 -8 28
-15 10 -35 14 -53 11 -20 -4 -26 -2 -21 6 4 6 12 9 17 6 5 -4 9 -2 9 4 0 5
-10 13 -22 17 -13 4 -25 10 -28 13 -3 4 -18 14 -33 24 -24 16 -32 16 -58 5
-16 -7 -29 -19 -29 -25 0 -7 -7 -13 -15 -13 -8 0 -15 7 -15 15 0 8 -9 15 -20
15 -11 0 -20 4 -20 9 0 18 17 20 48 9 25 -10 34 -10 44 1 11 10 9 15 -6 27
-23 16 -42 18 -51 4z m49 -21 c3 -3 -4 -5 -14 -6 -11 -1 -22 2 -24 6 -5 8 30
8 38 0z m200 -130 c-8 -14 -21 -11 -21 5 0 8 6 12 14 9 7 -3 10 -9 7 -14z m57
-28 c7 11 9 11 9 1 0 -7 4 -11 9 -8 5 3 11 -3 14 -14 5 -18 3 -19 -24 -4 -16
8 -28 22 -28 32 1 14 2 14 6 -2 4 -15 7 -16 14 -5z"/>
<path d="M1870 281 c0 -9 -15 -12 -50 -9 -50 3 -50 3 -56 -30 -4 -18 -4 -36 0
-39 3 -4 6 1 6 10 0 10 4 17 10 17 5 0 7 7 4 15 -5 12 3 15 39 15 42 0 67 13
53 27 -3 4 -6 1 -6 -6z"/>
<path d="M2810 270 c0 -11 2 -20 4 -20 2 0 6 9 9 20 3 11 1 20 -4 20 -5 0 -9
-9 -9 -20z"/>
<path d="M2030 275 c0 -7 30 -13 34 -7 3 4 -4 9 -15 9 -10 1 -19 0 -19 -2z"/>
<path d="M2287 273 c-4 -3 -7 -66 -7 -140 l0 -133 45 0 45 0 0 134 c0 74 -3
137 -7 139 -5 3 -7 -55 -5 -129 l4 -134 -36 0 -36 0 0 125 0 125 25 0 c14 0
25 5 25 10 0 11 -43 14 -53 3z"/>
<path d="M2702 265 c-1 -11 -5 -30 -8 -42 -6 -22 -4 -23 47 -21 50 1 51 2 12
5 -40 4 -42 6 -46 41 -2 20 -4 28 -5 17z"/>
<path d="M1903 263 c9 -2 25 -2 35 0 9 3 1 5 -18 5 -19 0 -27 -2 -17 -5z"/>
<path d="M2792 260 c0 -8 4 -26 8 -40 6 -20 8 -21 8 -5 0 11 -3 29 -8 40 -5
12 -8 14 -8 5z"/>
<path d="M183 245 c-3 -9 -3 -18 -1 -21 3 -3 8 4 11 16 6 23 -1 27 -10 5z"/>
<path d="M1330 256 c0 -2 9 -6 20 -9 11 -3 18 -1 14 4 -5 9 -34 13 -34 5z"/>
<path d="M1428 253 c50 -4 52 -5 52 -33 0 -24 -5 -29 -27 -33 -26 -4 -26 -4 5
-6 31 -1 32 0 32 39 l0 40 -57 -2 -58 -2 53 -3z"/>
<path d="M1500 220 c0 -39 1 -40 35 -40 19 0 35 4 35 9 0 5 -9 7 -21 4 -23 -6
-39 10 -39 40 0 20 45 24 53 5 3 -8 6 -6 6 5 1 13 -7 17 -34 17 -34 0 -35 -1
-35 -40z"/>
<path d="M1580 251 c0 -5 9 -7 20 -4 11 3 20 7 20 9 0 2 -9 4 -20 4 -11 0 -20
-4 -20 -9z"/>
<path d="M1680 225 c0 -35 0 -35 -47 -37 l-48 -1 50 -7 50 -7 -47 -1 c-27 -1
-48 -5 -48 -10 0 -4 20 -6 44 -4 l44 4 -3 -36 c-2 -20 1 -36 6 -36 5 0 9 31 9
69 0 38 3 76 6 85 3 9 1 16 -5 16 -6 0 -11 -16 -11 -35z"/>
<path d="M207 243 c-3 -5 5 -8 18 -8 13 0 21 3 18 8 -2 4 -10 7 -18 7 -8 0
-16 -3 -18 -7z"/>
<path d="M631 231 c-10 -18 -15 -19 -32 -10 -33 17 -33 3 0 -20 l30 -22 17 26
c12 18 14 29 6 37 -7 7 -14 4 -21 -11z m9 -21 c-6 -12 -14 -20 -17 -17 -2 3 1
14 8 26 17 26 24 19 9 -9z"/>
<path d="M950 239 c-25 -9 -25 -9 3 -5 15 2 27 0 27 -5 0 -4 9 -11 20 -14 25
-8 26 -32 3 -39 -14 -4 -14 -4 2 -3 30 3 29 33 -2 54 -21 15 -35 18 -53 12z"/>
<path d="M1850 240 c-10 -6 -11 -10 -2 -10 6 0 12 -7 12 -15 0 -8 4 -15 9 -15
4 0 6 11 3 25 -2 14 -5 25 -6 25 0 0 -8 -5 -16 -10z"/>
<path d="M2300 224 c0 -19 5 -23 25 -22 18 2 25 8 25 24 0 16 -6 22 -25 22
-20 0 -25 -6 -25 -24z m40 2 c0 -2 -7 -6 -15 -10 -8 -3 -15 -1 -15 4 0 6 7 10
15 10 8 0 15 -2 15 -4z"/>
<path d="M2406 237 c3 -10 9 -15 12 -12 3 3 0 11 -7 18 -10 9 -11 8 -5 -6z"/>
<path d="M2866 127 c-4 -66 -5 -121 -3 -124 7 -6 20 175 15 212 -2 17 -7 -23
-12 -88z"/>
<path d="M201 208 c-19 -17 -21 -23 -9 -34 7 -7 20 -14 28 -16 8 -2 19 -9 25
-16 7 -9 13 -4 21 22 10 31 8 35 -16 50 -25 14 -28 14 -49 -6z m47 -27 c3 -8
-1 -12 -9 -9 -7 2 -15 10 -17 17 -3 8 1 12 9 9 7 -2 15 -10 17 -17z"/>
<path d="M260 226 c0 -3 9 -10 20 -16 11 -6 20 -8 20 -6 0 3 -9 10 -20 16 -11
6 -20 8 -20 6z"/>
<path d="M1785 200 c-8 -25 1 -40 24 -40 28 0 46 26 31 45 -18 21 -48 19 -55
-5z m23 0 c-2 -5 2 -9 7 -7 6 1 9 6 7 10 -1 5 2 6 8 2 16 -10 -8 -35 -26 -28
-15 6 -18 16 -7 26 9 10 13 9 11 -3z"/>
<path d="M2580 209 c0 -5 11 -9 25 -9 14 0 25 2 25 4 0 2 -11 6 -25 8 -14 3
-25 1 -25 -3z"/>
<path d="M665 189 c-3 -4 2 -6 10 -5 21 3 28 13 10 13 -9 0 -18 -4 -20 -8z"/>
<path d="M905 190 c-3 -5 -1 -10 4 -10 6 0 11 5 11 10 0 6 -2 10 -4 10 -3 0
-8 -4 -11 -10z"/>
<path d="M1987 189 c-9 -5 -22 -7 -27 -4 -17 11 -11 -22 7 -36 15 -12 16 -12
10 3 -7 19 24 43 38 30 5 -4 5 -1 1 6 -8 14 -6 14 -29 1z"/>
<path d="M733 168 c3 -13 -1 -32 -9 -43 -14 -19 -15 -19 -47 -1 l-32 18 25
-21 c14 -11 31 -21 37 -21 19 0 63 73 49 82 -20 14 -28 8 -23 -14z"/>
<path d="M2302 163 c-1 -19 3 -23 26 -22 23 2 24 2 5 6 -13 2 -23 8 -23 13 0
4 9 6 20 3 14 -4 20 0 20 11 0 27 -46 17 -48 -11z"/>
<path d="M2410 179 c-19 -5 -14 -7 23 -8 26 -1 47 1 47 3 0 8 -46 12 -70 5z"/>
<path d="M2606 182 c6 -4 14 -14 17 -22 4 -10 6 -8 6 8 1 15 -5 22 -16 22 -11
0 -14 -3 -7 -8z"/>
<path d="M2641 168 c1 -17 2 -19 6 -5 2 9 13 17 23 17 15 0 20 -9 23 -42 l4
-43 1 42 c2 41 3 42 40 46 22 2 11 4 -30 5 -65 2 -68 1 -67 -20z"/>
<path d="M2780 176 c0 -8 4 -17 9 -20 5 -4 7 3 4 14 -6 23 -13 26 -13 6z"/>
<path d="M149 163 c-10 -12 -10 -15 -1 -9 7 4 20 2 28 -5 22 -18 27 -5 5 15
-17 15 -19 15 -32 -1z"/>
<path d="M2119 170 c-3 -8 -6 -51 -7 -95 l0 -80 9 75 c10 79 9 127 -2 100z"/>
<path d="M2514 141 c1 -58 26 -69 26 -12 0 36 3 40 28 44 25 4 25 4 -5 6 -32
1 -33 0 -35 -41 l-1 -43 -7 45 -8 45 2 -44z"/>
<path d="M656 158 c3 -5 10 -6 15 -3 13 9 11 12 -6 12 -8 0 -12 -4 -9 -9z"/>
<path d="M1065 142 c-14 -13 -25 -27 -25 -32 0 -6 -7 -10 -15 -10 -10 0 -15
-10 -15 -29 0 -16 -3 -36 -6 -45 -4 -10 -1 -16 9 -16 12 0 14 9 10 40 -6 39
-5 40 26 40 30 0 32 -2 29 -33 -2 -23 -8 -32 -20 -31 -10 1 -18 -2 -18 -7 0
-5 11 -9 25 -9 20 0 25 5 25 24 0 13 3 32 6 41 5 11 0 18 -15 22 -23 6 -27 23
-9 41 18 18 38 15 31 -5 -6 -17 -5 -16 15 0 11 11 26 16 32 12 9 -6 9 -10 -1
-16 -7 -4 -10 -11 -6 -16 4 -4 16 -2 27 5 12 7 21 8 25 2 3 -6 14 -10 23 -10
11 1 8 6 -11 16 -16 9 -27 21 -24 27 3 8 -11 12 -45 12 -37 0 -55 -6 -73 -23z"/>
<path d="M1308 163 c6 -2 18 -2 25 0 6 3 1 5 -13 5 -14 0 -19 -2 -12 -5z"/>
<path d="M1500 166 c0 -2 16 -6 35 -8 19 -2 35 0 35 4 0 4 -16 8 -35 8 -19 0
-35 -2 -35 -4z"/>
<path d="M1750 160 c0 -5 7 -10 16 -10 8 0 12 5 9 10 -3 6 -10 10 -16 10 -5 0
-9 -4 -9 -10z"/>
<path d="M2713 135 c0 -22 2 -30 4 -17 2 12 2 30 0 40 -3 9 -5 -1 -4 -23z"/>
<path d="M686 152 c-3 -5 1 -9 9 -9 8 0 12 4 9 9 -3 4 -7 8 -9 8 -2 0 -6 -4
-9 -8z"/>
<path d="M1210 152 c0 -10 60 -45 66 -39 3 2 -11 14 -31 25 -19 12 -35 18 -35
14z"/>
<path d="M2491 144 c0 -11 3 -14 6 -6 3 7 2 16 -1 19 -3 4 -6 -2 -5 -13z"/>
<path d="M1792 143 c-10 -4 -9 -9 5 -20 10 -8 13 -12 7 -9 -7 3 -14 0 -17 -8
-4 -10 2 -13 19 -12 19 1 23 6 21 25 -4 26 -13 33 -35 24z"/>
<path d="M1858 136 c-13 -10 -14 -15 -3 -29 17 -23 31 -21 51 6 l16 22 -5 -22
c-3 -13 -1 -23 4 -23 5 0 9 15 9 33 l-1 32 -18 -22 c-10 -12 -22 -19 -26 -15
-5 4 -5 1 -1 -5 4 -7 2 -13 -3 -13 -14 0 -14 13 0 27 16 16 -3 23 -23 9z"/>
<path d="M2472 120 c0 -19 2 -27 5 -17 2 9 2 25 0 35 -3 9 -5 1 -5 -18z"/>
<path d="M150 130 c0 -5 5 -10 10 -10 6 0 10 5 10 10 0 6 -4 10 -10 10 -5 0
-10 -4 -10 -10z"/>
<path d="M1941 128 c-1 -9 4 -20 9 -23 6 -3 10 -29 10 -57 0 -28 3 -48 7 -44
10 9 13 96 3 96 -4 0 -12 10 -18 23 -8 17 -11 18 -11 5z"/>
<path d="M2652 120 c0 -14 2 -19 5 -12 2 6 2 18 0 25 -3 6 -5 1 -5 -13z"/>
<path d="M2791 124 c0 -11 3 -14 6 -6 3 7 2 16 -1 19 -3 4 -6 -2 -5 -13z"/>
<path d="M113 123 c9 -2 15 -9 11 -14 -3 -5 -10 -7 -15 -4 -5 3 -6 -1 -3 -10
4 -9 9 -13 12 -11 3 3 12 0 20 -7 13 -10 14 -9 7 3 -5 8 -8 23 -7 33 2 12 -3
17 -20 16 -17 -1 -18 -3 -5 -6z"/>
<path d="M335 121 c-6 -11 9 -23 19 -14 9 9 7 23 -3 23 -6 0 -12 -4 -16 -9z"/>
<path d="M1591 113 c-1 -20 3 -23 37 -21 36 1 36 1 5 5 -19 3 -34 11 -36 21
-3 12 -5 10 -6 -5z"/>
<path d="M2300 110 c0 -11 7 -20 15 -20 9 0 15 -10 16 -27 l1 -28 8 30 c14 55
12 65 -15 65 -18 0 -25 -5 -25 -20z m40 -6 c0 -8 -4 -12 -10 -9 -5 3 -10 10
-10 16 0 5 5 9 10 9 6 0 10 -7 10 -16z"/>
<path d="M2631 114 c0 -11 3 -14 6 -6 3 7 2 16 -1 19 -3 4 -6 -2 -5 -13z"/>
<path d="M1742 109 c-1 -9 -5 -32 -8 -50 -4 -28 -3 -31 6 -16 6 9 9 32 7 50
-2 17 -5 25 -5 16z"/>
<path d="M2400 100 c-8 -5 -10 -10 -5 -10 6 0 17 5 25 10 8 5 11 10 5 10 -5 0
-17 -5 -25 -10z"/>
<path d="M849 79 c-15 -15 -14 -18 13 -34 23 -13 27 -20 17 -31 -7 -8 -7 -14
-1 -14 20 0 20 29 1 54 -11 14 -16 26 -12 26 12 0 50 -29 39 -30 -5 0 -3 -7 4
-15 6 -8 8 -20 4 -26 -4 -7 -3 -9 3 -6 22 14 11 53 -21 73 -29 19 -32 19 -47
3z"/>
<path d="M1151 93 c-1 -7 -10 -13 -21 -13 -11 0 -20 -4 -20 -10 0 -5 10 -10
22 -10 22 0 22 -1 -5 -25 -32 -30 -35 -40 -8 -25 13 7 22 7 26 0 8 -12 25 -13
44 -1 12 8 11 13 -10 30 l-24 20 23 1 c12 0 22 5 22 10 0 6 -9 10 -19 10 -11
0 -22 6 -24 13 -4 10 -6 10 -6 0z m26 -80 c-8 -7 -37 9 -31 19 3 5 12 4 20 -3
8 -6 13 -14 11 -16z"/>
<path d="M1221 82 c-7 -13 -6 -23 2 -31 9 -9 9 -14 -3 -21 -8 -5 -11 -12 -7
-17 5 -4 17 3 27 17 10 14 22 22 26 18 4 -4 1 -14 -6 -23 -10 -12 -10 -15 4
-15 9 0 16 8 16 18 0 10 5 23 10 28 7 7 3 17 -11 30 -19 16 -21 16 -16 2 4
-11 -1 -18 -14 -21 -22 -6 -25 3 -7 21 9 9 9 12 0 12 -6 0 -16 -8 -21 -18z"/>
<path d="M2430 90 c-8 -5 -10 -10 -5 -10 6 0 17 5 25 10 8 5 11 10 5 10 -5 0
-17 -5 -25 -10z"/>
<path d="M2595 93 c11 -3 26 -10 33 -15 8 -7 12 -7 12 0 0 12 -25 22 -48 21
-13 -1 -12 -3 3 -6z"/>
<path d="M2761 90 c0 -8 4 -24 9 -35 5 -13 9 -14 9 -5 0 8 -4 24 -9 35 -5 13
-9 14 -9 5z"/>
<path d="M2695 54 c5 -40 4 -40 -24 -36 -16 2 -31 0 -34 -5 -3 -4 13 -8 34 -8
33 -1 39 2 39 20 0 11 3 31 5 45 5 21 4 22 -3 5 -9 -20 -9 -20 -15 0 -4 11 -4
2 -2 -21z"/>
<path d="M1030 70 c0 -5 9 -10 20 -10 11 0 20 5 20 10 0 6 -9 10 -20 10 -11 0
-20 -4 -20 -10z"/>
<path d="M1379 64 c-8 -10 -23 -14 -41 -12 -19 3 -25 1 -19 -5 7 -7 6 -17 -1
-31 -9 -17 -8 -19 3 -8 16 14 33 16 24 2 -4 -6 7 -10 24 -10 32 0 39 8 20 27
-8 8 -8 17 0 32 14 25 9 27 -10 5z m-12 -30 c-3 -3 -12 -4 -19 -1 -8 3 -5 6 6
6 11 1 17 -2 13 -5z m20 -20 c-3 -3 -12 -4 -19 -1 -8 3 -5 6 6 6 11 1 17 -2
13 -5z"/>
<path d="M1482 50 c0 -19 2 -27 5 -17 2 9 2 25 0 35 -3 9 -5 1 -5 -18z"/>
<path d="M2300 75 c0 -5 5 -17 10 -25 5 -8 10 -10 10 -5 0 6 -5 17 -10 25 -5
8 -10 11 -10 5z"/>
<path d="M2463 69 c9 -5 17 -19 17 -29 0 -15 7 -20 25 -20 15 0 25 6 25 14 0
8 8 22 17 31 16 16 15 17 -3 13 -11 -2 -20 -13 -22 -26 -4 -27 -32 -30 -32 -3
0 10 -7 22 -16 25 -24 9 -31 7 -11 -5z"/>
<path d="M153 63 c-18 -6 -16 -33 2 -33 8 0 15 6 15 13 0 9 3 8 9 -2 5 -8 16
-11 31 -6 12 4 20 9 17 11 -9 9 -62 21 -74 17z"/>
<path d="M431 53 c-1 -25 -21 -32 -21 -8 0 9 -9 15 -25 15 -16 0 -25 -6 -25
-15 0 -8 7 -15 15 -15 8 0 15 5 15 12 0 6 6 4 13 -6 11 -14 21 -17 47 -11 24
5 29 10 19 16 -12 8 -12 11 1 19 13 8 12 10 -2 10 -12 0 -18 -8 -19 -22 -1
-22 -1 -22 -9 2 -8 24 -8 24 -9 3z"/>
<path d="M489 39 c-4 -30 -2 -35 16 -37 11 0 15 2 8 6 -6 4 -13 21 -15 37 -4
30 -4 30 -9 -6z"/>
<path d="M514 50 c0 -14 7 -20 21 -20 14 0 21 6 21 20 0 14 -7 20 -21 20 -14
0 -21 -6 -21 -20z"/>
<path d="M570 48 c0 -19 2 -20 10 -8 8 12 10 12 10 1 0 -8 2 -12 5 -9 8 7 -5
38 -16 38 -5 0 -9 -10 -9 -22z"/>
<path d="M610 48 c0 -12 3 -19 6 -15 3 3 16 2 28 -2 18 -7 21 -5 22 15 1 13
-2 24 -7 24 -5 0 -9 -7 -9 -15 0 -18 -16 -20 -26 -3 -4 7 -3 8 4 4 7 -4 12 -2
12 3 0 6 -7 11 -15 11 -9 0 -15 -9 -15 -22z"/>
<path d="M1670 61 c0 -6 5 -13 10 -16 6 -3 10 1 10 9 0 9 -4 16 -10 16 -5 0
-10 -4 -10 -9z"/>
<path d="M1712 45 c0 -17 2 -22 5 -12 2 9 2 23 0 30 -3 6 -5 -1 -5 -18z"/>
<path d="M1770 60 c0 -5 12 -10 28 -9 24 0 25 1 7 9 -27 12 -35 12 -35 0z"/>
<path d="M2245 60 c-3 -5 -1 -10 4 -10 6 0 11 5 11 10 0 6 -2 10 -4 10 -3 0
-8 -4 -11 -10z"/>
<path d="M2883 35 c0 -22 2 -30 4 -17 2 12 2 30 0 40 -3 9 -5 -1 -4 -23z"/>
<path d="M1501 44 c0 -11 3 -14 6 -6 3 7 2 16 -1 19 -3 4 -6 -2 -5 -13z"/>
<path d="M1836 51 c-4 -7 -5 -15 -2 -18 9 -9 19 4 14 18 -4 11 -6 11 -12 0z"/>
<path d="M2583 53 c9 -2 25 -2 35 0 9 3 1 5 -18 5 -19 0 -27 -2 -17 -5z"/>
<path d="M752 25 c20 -14 40 -25 45 -25 4 0 -9 11 -29 25 -20 14 -40 25 -45
25 -4 0 9 -11 29 -25z"/>
<path d="M1860 40 c0 -5 9 -10 21 -10 11 0 17 4 14 10 -3 6 -13 10 -21 10 -8
0 -14 -4 -14 -10z"/>
<path d="M2410 41 c0 -5 -8 -12 -17 -14 -10 -3 4 -5 30 -6 43 -1 47 1 33 14
-16 17 -46 20 -46 6z"/>
<path d="M1750 23 c0 -13 5 -23 10 -23 13 0 13 11 0 30 -8 12 -10 11 -10 -7z"/>
<path d="M2540 29 c0 -5 5 -7 10 -4 6 3 10 8 10 11 0 2 -4 4 -10 4 -5 0 -10
-5 -10 -11z"/>
<path d="M177 19 c7 -9 24 -15 37 -15 33 2 42 12 16 19 -11 3 -23 1 -26 -4 -3
-6 -12 -5 -22 3 -15 11 -15 11 -5 -3z"/>
<path d="M2231 14 c0 -11 3 -14 6 -6 3 7 2 16 -1 19 -3 4 -6 -2 -5 -13z"/>
<path d="M2313 23 c9 -2 23 -2 30 0 6 3 -1 5 -18 5 -16 0 -22 -2 -12 -5z"/>
<path d="M945 10 c-3 -6 1 -7 9 -4 18 7 21 14 7 14 -6 0 -13 -4 -16 -10z"/>
<path d="M1430 10 l-25 -8 28 -1 c15 -1 27 4 27 9 0 6 -1 10 -2 9 -2 -1 -14
-5 -28 -9z"/>
<path d="M1590 12 c0 -4 14 -7 30 -7 17 -1 30 3 30 7 0 4 -13 8 -30 8 -16 0
-30 -3 -30 -8z"/>
<path d="M1488 3 c6 -2 18 -2 25 0 6 3 1 5 -13 5 -14 0 -19 -2 -12 -5z"/>
<path d="M1543 3 c9 -2 23 -2 30 0 6 3 -1 5 -18 5 -16 0 -22 -2 -12 -5z"/>
<path d="M1993 3 c9 -2 25 -2 35 0 9 3 1 5 -18 5 -19 0 -27 -2 -17 -5z"/>
<path d="M2403 3 c15 -2 37 -2 50 0 12 2 0 4 -28 4 -27 0 -38 -2 -22 -4z"/>
<path d="M2493 3 c9 -2 23 -2 30 0 6 3 -1 5 -18 5 -16 0 -22 -2 -12 -5z"/>
</g>
</svg>
