<?xml version="1.0" standalone="no"?>
<!DOCTYPE svg PUBLIC "-//W3C//DTD SVG 20010904//EN"
 "http://www.w3.org/TR/2001/REC-SVG-20010904/DTD/svg10.dtd">
<svg version="1.0" xmlns="http://www.w3.org/2000/svg"
 width="300.000000pt" height="225.000000pt" viewBox="0 0 300.000000 225.000000"
 preserveAspectRatio="xMidYMid meet">
<metadata>
Created by potrace 1.10, written by Peter Selinger 2001-2011
</metadata>
<g transform="translate(0.000000,225.000000) scale(0.100000,-0.100000)"
fill="#000000" stroke="none">
<path d="M1515 2170 c-17 -18 -39 -30 -54 -30 -35 -1 -101 -32 -128 -61 -24
-27 -43 -70 -43 -100 0 -25 -45 -86 -69 -94 -9 -3 -17 -14 -17 -25 0 -24 60
-50 98 -43 32 6 82 -34 69 -55 -6 -11 -15 -10 -45 5 -28 13 -41 15 -54 7 -41
-26 -15 -104 44 -131 47 -23 69 -9 70 43 0 22 4 50 8 64 6 20 5 22 -4 10 -8
-10 -10 -11 -8 -2 4 15 5 15 53 6 23 -4 54 0 87 11 46 15 53 15 63 2 15 -20
82 -47 100 -41 26 10 18 60 -14 90 l-30 28 29 17 c43 26 50 48 43 124 -8 82
-34 125 -87 143 -33 10 -42 10 -61 -2 -21 -14 -65 -12 -65 3 0 4 13 17 30 29
25 19 33 20 54 11 14 -7 23 -16 20 -20 -3 -5 2 -9 10 -9 25 0 19 14 -13 33
-40 24 -53 22 -86 -13z m119 -56 c19 -18 20 -40 5 -120 -13 -73 -47 -154 -64
-154 -34 0 -64 141 -37 176 13 18 14 17 7 -6 -5 -19 -4 -21 4 -10 6 8 8 23 5
33 -4 11 6 29 29 52 38 38 31 46 -13 15 -36 -26 -260 -100 -260 -86 0 17 15
36 27 36 9 0 55 14 103 30 50 17 95 27 106 23 11 -4 15 -3 10 5 -6 9 10 16 51
21 6 0 19 -6 27 -15z m-169 -10 c-22 -9 -60 -22 -83 -29 l-44 -14 19 21 c25
28 50 37 103 37 l45 0 -40 -15z m235 -96 c0 -16 -5 -28 -12 -28 -18 0 -37 -46
-31 -70 4 -14 -3 -30 -17 -45 -31 -33 -44 -32 -26 3 22 42 46 144 47 198 l1
49 19 -40 c10 -22 19 -52 19 -67z m-176 27 c-7 -19 -14 -46 -14 -59 0 -26 -2
-28 -78 -40 -19 -3 -52 -20 -73 -37 -22 -17 -43 -29 -46 -25 -4 4 -9 33 -11
65 l-4 58 58 12 c44 9 159 47 181 60 1 0 -5 -15 -13 -34z m181 -76 c8 -12 -13
-69 -25 -69 -15 0 -17 49 -3 54 8 3 11 10 8 16 -3 5 -2 10 4 10 5 0 13 -5 16
-11z m-171 -97 c9 -17 23 -32 30 -32 8 0 17 -8 20 -17 6 -14 8 -14 22 5 19 28
26 28 58 -4 33 -34 35 -64 3 -64 -18 0 -22 5 -22 32 0 23 -5 34 -17 36 -10 2
-18 -2 -18 -8 0 -6 5 -8 10 -5 15 9 25 -25 11 -38 -10 -9 -18 -6 -37 16 -23
27 -25 27 -53 12 -34 -17 -117 -20 -126 -4 -4 5 -12 8 -18 6 -22 -8 -66 32
-62 55 3 11 6 21 7 22 2 1 18 12 37 25 19 13 51 25 73 26 21 1 42 5 46 9 3 4
9 -3 13 -16 3 -13 14 -38 23 -56z m-238 -30 c-31 -6 -63 7 -69 28 -3 11 -1 20
4 20 5 0 19 11 31 25 l22 25 15 -48 c15 -45 15 -47 -3 -50z m49 -94 c32 -29
39 -80 11 -86 -41 -9 -106 57 -92 94 8 21 52 17 81 -8z"/>
<path d="M1445 2021 c-3 -5 -1 -12 5 -16 5 -3 10 1 10 9 0 18 -6 21 -15 7z"/>
<path d="M1475 2008 c-14 -45 -14 -50 0 -38 14 12 26 60 15 60 -4 0 -11 -10
-15 -22z"/>
<path d="M1394 1995 c-15 -11 -17 -18 -8 -31 16 -27 30 -27 48 0 15 24 15 26
-3 35 -13 7 -24 6 -37 -4z m36 -14 c0 -5 -6 -14 -14 -20 -16 -13 -32 2 -21 19
8 12 35 13 35 1z"/>
<path d="M1350 1990 c0 -5 5 -10 10 -10 6 0 10 5 10 10 0 6 -4 10 -10 10 -5 0
-10 -4 -10 -10z"/>
<path d="M1320 1969 c0 -5 5 -7 10 -4 6 3 10 8 10 11 0 2 -4 4 -10 4 -5 0 -10
-5 -10 -11z"/>
<path d="M1348 1953 c7 -3 16 -2 19 1 4 3 -2 6 -13 5 -11 0 -14 -3 -6 -6z"/>
<path d="M1600 1789 c0 -4 7 -9 15 -13 9 -3 15 0 15 8 0 7 -7 13 -15 13 -8 0
-15 -4 -15 -8z"/>
<path d="M305 1390 c-4 -6 -13 -9 -20 -6 -7 2 -16 -2 -19 -10 -9 -23 -7 -31 4
-14 5 8 12 11 16 7 4 -4 -1 -17 -12 -28 -14 -16 -15 -21 -4 -17 17 5 55 66 47
74 -3 3 -8 0 -12 -6z"/>
<path d="M369 1393 c-1 -4 -1 -11 0 -15 2 -13 -27 -9 -32 5 -3 6 -6 -3 -6 -20
-1 -30 2 -33 27 -32 23 2 24 2 5 6 -28 5 -31 23 -4 23 21 0 36 26 21 35 -6 4
-11 3 -11 -2z"/>
<path d="M906 1392 c-3 -5 -18 -12 -33 -15 -27 -6 -75 -57 -54 -57 6 0 18 11
27 25 9 14 25 25 35 25 26 0 24 -15 -3 -28 -18 -8 -19 -11 -6 -11 10 -1 25 11
34 25 12 18 19 22 25 13 4 -7 5 -18 2 -26 -3 -8 3 -13 18 -13 17 0 20 3 10 9
-9 6 -10 11 -2 15 17 11 13 26 -7 26 -10 0 -23 5 -29 11 -7 7 -13 7 -17 1z"/>
<path d="M1600 1391 c0 -6 -7 -11 -15 -11 -8 0 -15 -6 -15 -14 0 -8 -3 -22 -7
-32 -4 -12 -3 -15 5 -10 7 4 12 16 12 27 0 10 4 19 9 19 4 0 6 -11 4 -25 -5
-23 -4 -24 28 -15 42 12 42 12 34 0 -3 -6 1 -7 9 -4 9 3 16 10 16 16 0 5 -4 6
-10 3 -5 -3 -10 1 -10 9 0 9 5 16 10 16 6 0 10 -5 10 -11 0 -5 4 -7 10 -4 6 3
7 -1 4 -12 -5 -17 -5 -17 6 0 15 23 1 42 -33 45 -18 1 -23 -3 -23 -20 1 -26
-19 -35 -28 -13 -3 9 -2 13 4 10 16 -10 12 11 -5 25 -10 9 -15 9 -15 1z"/>
<path d="M2090 1390 c0 -7 -7 -10 -15 -6 -9 3 -18 0 -21 -7 -3 -8 -19 -12 -42
-11 -20 2 -27 0 -14 -2 26 -6 29 -19 6 -28 -9 -4 -14 -9 -11 -12 3 -3 22 6 42
21 19 15 39 25 43 21 4 -4 -1 -13 -11 -20 -21 -16 -22 -27 -1 -19 8 3 20 17
25 31 10 26 24 23 24 -6 0 -12 9 -17 30 -19 20 -1 23 0 8 4 -25 5 -32 23 -9
23 8 0 17 7 20 16 10 26 6 30 -10 9 -13 -17 -16 -18 -24 -5 -5 8 -10 11 -10 6
0 -5 -7 -3 -15 4 -12 10 -15 10 -15 0z"/>
<path d="M203 1383 c9 -2 23 -2 30 0 6 3 -1 5 -18 5 -16 0 -22 -2 -12 -5z"/>
<path d="M470 1377 c0 -9 -11 -12 -35 -9 -21 3 -35 0 -35 -7 0 -19 78 -13 89
7 7 12 13 14 21 6 8 -8 7 -16 -5 -28 -9 -9 -13 -16 -8 -16 15 0 33 23 33 42 0
13 -8 18 -30 18 -18 0 -30 -5 -30 -13z"/>
<path d="M645 1382 c-17 -12 -36 -52 -25 -52 6 0 15 10 20 23 l9 22 0 -23 c1
-25 21 -26 29 -2 3 7 0 10 -6 6 -6 -3 -12 3 -14 14 -2 11 -7 16 -13 12z"/>
<path d="M690 1360 c0 -16 5 -30 11 -30 5 0 8 4 4 9 -3 5 1 11 8 13 9 2 8 8
-5 21 -17 16 -18 16 -18 -13z"/>
<path d="M715 1380 c4 -6 11 -8 16 -5 14 9 11 15 -7 15 -8 0 -12 -5 -9 -10z"/>
<path d="M760 1371 c0 -9 -5 -22 -11 -28 -7 -7 -3 -10 16 -10 15 0 29 6 32 13
3 8 9 12 13 9 5 -3 11 -1 14 3 3 5 -10 14 -29 20 -30 9 -35 8 -35 -7z m25 -10
c3 -5 1 -12 -5 -16 -5 -3 -10 1 -10 9 0 18 6 21 15 7z"/>
<path d="M987 1384 c-4 -4 -7 -18 -7 -31 0 -18 5 -24 18 -21 10 2 17 12 17 27
0 24 -15 37 -28 25z m23 -29 c0 -8 -4 -15 -10 -15 -5 0 -10 7 -10 15 0 8 5 15
10 15 6 0 10 -7 10 -15z"/>
<path d="M1047 1383 c-2 -5 -1 -19 4 -33 7 -23 7 -23 8 8 1 31 -3 40 -12 25z"/>
<path d="M1201 1381 c-11 -7 -11 -9 0 -13 11 -4 10 -10 -5 -27 -22 -25 -11
-28 16 -4 11 9 18 11 18 5 0 -7 5 -12 11 -12 8 0 7 5 -2 16 -10 12 -10 17 0
23 10 6 9 10 -4 15 -20 7 -17 8 -34 -3z"/>
<path d="M1271 1376 c-9 -11 -9 -15 1 -18 11 -4 10 -8 0 -21 -12 -14 -10 -16
14 -14 34 3 51 39 27 59 -15 11 -16 11 -10 -4 4 -12 2 -18 -8 -18 -9 0 -12 6
-9 15 8 19 0 19 -15 1z m39 -30 c0 -3 -4 -8 -10 -11 -5 -3 -10 -1 -10 4 0 6 5
11 10 11 6 0 10 -2 10 -4z"/>
<path d="M1340 1355 c0 -36 8 -43 27 -24 8 8 13 8 17 0 11 -18 26 -12 26 10 0
13 -4 18 -12 13 -10 -6 -10 -4 0 7 20 21 14 29 -23 29 -33 0 -35 -2 -35 -35z
m33 8 c-7 -3 -13 -12 -14 -21 0 -11 -2 -13 -6 -4 -6 15 17 46 26 36 3 -4 0 -9
-6 -11z"/>
<path d="M1421 1353 c0 -31 2 -34 9 -18 7 17 9 17 9 3 1 -10 9 -18 19 -18 12
0 17 9 19 34 1 25 -2 33 -13 32 -9 -1 -20 -9 -26 -17 -8 -11 -9 -11 -4 4 3 9
1 17 -4 17 -6 0 -10 -17 -9 -37z"/>
<path d="M1500 1375 c-13 -16 -7 -45 10 -45 5 0 10 6 10 14 0 8 5 18 12 22 8
5 9 0 6 -14 -7 -25 7 -30 16 -6 7 19 -10 44 -29 44 -7 0 -18 -7 -25 -15z m14
-20 c-4 -8 -8 -15 -10 -15 -2 0 -4 7 -4 15 0 8 4 15 10 15 5 0 7 -7 4 -15z"/>
<path d="M1722 1360 c0 -19 2 -27 5 -17 2 9 2 25 0 35 -3 9 -5 1 -5 -18z"/>
<path d="M1803 1383 c-7 -2 -13 -19 -12 -36 0 -18 3 -26 6 -19 2 6 14 12 24
12 11 0 17 -4 14 -10 -3 -5 -1 -10 4 -10 18 0 13 57 -5 64 -9 3 -16 6 -17 5
-1 0 -8 -3 -14 -6z m31 -25 c-3 -4 -12 -8 -20 -8 -8 0 -14 4 -14 8 0 4 9 8 19
8 11 0 17 -4 15 -8z"/>
<path d="M1867 1383 c-11 -10 -8 -53 3 -53 6 0 10 7 10 15 0 8 5 15 11 15 6 0
8 -9 4 -21 -5 -15 -4 -19 4 -15 6 4 11 14 11 22 0 8 5 14 11 14 8 0 7 5 -1 15
-11 13 -15 13 -22 3 -6 -10 -10 -11 -16 0 -5 7 -11 9 -15 5z"/>
<path d="M1998 1383 c6 -2 18 -2 25 0 6 3 1 5 -13 5 -14 0 -19 -2 -12 -5z"/>
<path d="M2261 1381 c-18 -11 1 -23 26 -15 17 5 17 5 1 -6 -13 -8 -23 -8 -37
0 -25 13 -71 13 -71 0 0 -5 18 -10 40 -10 29 0 40 -4 40 -15 0 -9 9 -15 23
-14 21 0 21 1 2 9 -11 5 -15 9 -10 9 6 1 16 5 24 10 12 8 12 12 2 25 -15 18
-21 19 -40 7z"/>
<path d="M2335 1380 c17 -6 17 -9 5 -14 -9 -4 -16 -15 -17 -24 -1 -14 7 -19
32 -20 33 -2 34 -2 25 27 -4 16 -6 32 -2 35 3 3 -10 6 -29 5 -28 0 -30 -2 -14
-9z m35 -40 c0 -5 -5 -10 -11 -10 -5 0 -7 5 -4 10 3 6 8 10 11 10 2 0 4 -4 4
-10z"/>
<path d="M2390 1366 c0 -35 22 -49 46 -30 18 15 18 15 -3 9 -20 -5 -23 -2 -23
19 0 14 -4 26 -10 26 -5 0 -10 -11 -10 -24z"/>
<path d="M2420 1380 c0 -5 5 -10 10 -10 6 0 10 5 10 10 0 6 -4 10 -10 10 -5 0
-10 -4 -10 -10z"/>
<path d="M2475 1380 c-16 -4 -24 -8 -17 -9 6 0 12 -10 12 -20 0 -10 7 -21 15
-25 8 -3 15 -1 15 4 0 6 -4 10 -10 10 -5 0 -10 7 -10 15 0 8 7 15 15 15 8 0
15 5 15 10 0 6 -1 9 -2 9 -2 -1 -16 -5 -33 -9z"/>
<path d="M2531 1381 c-11 -7 -11 -9 0 -14 11 -4 12 -7 2 -18 -20 -21 -15 -34
6 -15 10 10 21 13 22 8 7 -18 49 -24 55 -8 3 9 10 16 15 16 4 0 5 -7 2 -17 -4
-10 -2 -14 4 -10 18 11 22 46 7 58 -12 10 -13 9 -8 -5 4 -11 1 -16 -10 -16
-10 0 -13 5 -9 18 6 15 5 15 -11 3 -13 -11 -14 -16 -4 -22 9 -6 10 -11 2 -19
-7 -7 -16 -6 -30 5 -15 12 -16 16 -6 23 11 7 10 10 -3 16 -20 7 -17 8 -34 -3z"/>
<path d="M2670 1354 c0 -22 4 -33 11 -29 6 4 8 14 5 22 -3 8 -1 11 4 8 6 -3
10 -14 11 -23 0 -11 2 -12 6 -4 2 6 8 10 12 8 4 -3 8 9 9 25 2 26 -1 29 -28
29 -28 0 -30 -3 -30 -36z"/>
<path d="M2748 1358 c-3 -31 -2 -33 29 -33 18 0 33 3 33 8 0 4 -6 7 -12 7 -9
0 -8 4 2 10 13 8 12 10 -5 11 -11 1 -23 1 -27 0 -5 0 -8 4 -8 10 0 6 9 9 20 6
11 -3 20 -1 20 4 0 5 -11 9 -24 9 -19 0 -25 -6 -28 -32z"/>
<path d="M2832 1378 c-21 -21 -14 -47 11 -46 34 2 48 17 36 39 -11 22 -30 24
-47 7z m5 -30 c-3 -8 -6 -5 -6 6 -1 11 2 17 5 13 3 -3 4 -12 1 -19z m29 -5
c-10 -10 -19 5 -10 18 6 11 8 11 12 0 2 -7 1 -15 -2 -18z"/>
<path d="M1080 1355 c0 -18 5 -25 20 -25 15 0 20 7 20 25 0 18 -5 25 -20 25
-15 0 -20 -7 -20 -25z"/>
<path d="M1130 1372 c0 -4 11 -9 25 -10 14 -1 25 2 25 6 0 4 -11 9 -25 10 -14
1 -25 -2 -25 -6z"/>
<path d="M1748 1373 c6 -2 18 -2 25 0 6 3 1 5 -13 5 -14 0 -19 -2 -12 -5z"/>
<path d="M208 1363 c26 -5 29 -18 6 -27 -9 -4 -14 -9 -10 -13 7 -7 46 25 46
39 0 4 -15 7 -32 7 -24 -1 -27 -3 -10 -6z"/>
<path d="M540 1360 c0 -5 16 -10 35 -10 19 0 35 5 35 10 0 6 -16 10 -35 10
-19 0 -35 -4 -35 -10z"/>
<path d="M1748 1338 c5 -5 16 -8 23 -6 8 3 3 7 -10 11 -17 4 -21 3 -13 -5z"/>
<path d="M1930 1336 c0 -2 7 -6 15 -10 8 -3 15 -1 15 4 0 6 -7 10 -15 10 -8 0
-15 -2 -15 -4z"/>
<path d="M1461 1188 c1 -22 3 -26 6 -13 3 11 10 26 15 33 8 9 6 12 -6 12 -12
0 -16 -9 -15 -32z"/>
<path d="M153 1195 c-16 -18 -16 -23 1 -41 19 -18 30 -18 46 1 10 13 10 19 -5
35 -21 23 -26 24 -42 5z m37 -20 c0 -8 -4 -15 -10 -15 -5 0 -10 7 -10 15 0 8
5 15 10 15 6 0 10 -7 10 -15z"/>
<path d="M234 1202 c-5 -4 -10 -18 -9 -32 0 -19 6 -26 25 -27 22 -2 23 -2 5 6
-19 8 -19 8 3 15 12 4 22 11 22 16 0 14 -34 30 -46 22z m26 -22 c-8 -5 -19
-10 -25 -10 -5 0 -3 5 5 10 8 5 20 10 25 10 6 0 3 -5 -5 -10z"/>
<path d="M441 1173 c2 -30 3 -33 6 -10 3 21 10 27 30 27 31 0 28 5 -9 14 -27
6 -28 5 -27 -31z"/>
<path d="M525 1199 c-17 -6 -17 -8 -2 -8 9 -1 17 -6 17 -12 0 -5 -6 -7 -12 -3
-10 6 -10 5 -1 -8 7 -8 9 -19 5 -23 -4 -5 -1 -5 6 -1 6 4 12 16 12 26 0 10 8
20 18 22 15 3 14 5 -3 9 -11 3 -29 2 -40 -2z"/>
<path d="M598 1203 c10 -4 10 -9 -3 -23 -14 -15 -14 -19 0 -30 8 -7 22 -10 30
-6 17 6 20 32 5 41 -6 4 -8 11 -5 16 4 5 -4 9 -17 8 -13 0 -17 -3 -10 -6z m27
-33 c3 -6 -1 -7 -9 -4 -18 7 -21 14 -7 14 6 0 13 -4 16 -10z"/>
<path d="M656 1201 c-4 -7 -5 -22 -2 -35 5 -21 11 -23 57 -17 3 1 5 13 4 28
-1 32 -35 47 -36 16 0 -17 -1 -16 -8 1 -5 14 -10 16 -15 7z"/>
<path d="M740 1190 c-13 -23 -13 -33 -1 -25 5 3 12 1 16 -5 11 -17 21 -11 23
14 2 30 -24 42 -38 16z m30 -4 c0 -3 -4 -8 -10 -11 -5 -3 -10 -1 -10 4 0 6 5
11 10 11 6 0 10 -2 10 -4z"/>
<path d="M809 1208 c-12 -42 4 -74 32 -63 16 6 22 55 7 55 -5 0 -7 -4 -4 -8 2
-4 -4 -13 -15 -20 -10 -7 -19 -8 -19 -3 0 6 5 13 10 16 6 3 10 10 10 16 0 8
-19 14 -21 7z"/>
<path d="M870 1178 c0 -25 3 -29 10 -18 8 13 10 12 10 -4 0 -12 5 -16 16 -12
9 3 18 6 20 6 12 0 2 49 -12 54 -33 13 -44 6 -44 -26z m43 -8 c-3 -11 -7 -20
-9 -20 -2 0 -4 9 -4 20 0 11 4 20 9 20 5 0 7 -9 4 -20z"/>
<path d="M949 1208 c-5 -19 -3 -61 3 -64 4 -3 8 0 8 7 0 10 3 10 12 1 23 -23
38 -13 38 23 0 24 -5 35 -15 35 -8 0 -15 -6 -15 -14 0 -8 -4 -18 -10 -21 -5
-3 -7 0 -4 8 3 8 1 18 -5 22 -6 3 -11 5 -12 3z"/>
<path d="M1093 1190 c-22 -18 -32 -37 -14 -26 5 3 12 -2 16 -12 6 -13 10 -9
16 18 4 19 7 36 6 37 -1 1 -12 -7 -24 -17z"/>
<path d="M1170 1200 c0 -5 5 -10 10 -10 6 0 10 5 10 10 0 6 -4 10 -10 10 -5 0
-10 -4 -10 -10z"/>
<path d="M1271 1173 c1 -21 3 -30 6 -20 5 19 38 23 48 6 4 -6 14 -8 22 -5 8 3
11 1 8 -4 -3 -6 -1 -10 4 -10 6 0 12 3 12 8 8 51 7 62 -7 62 -10 0 -12 -5 -8
-12 6 -9 3 -9 -9 0 -9 8 -22 10 -28 6 -9 -5 -7 -10 7 -15 15 -7 12 -8 -11 -6
-18 1 -29 7 -27 15 1 6 -2 12 -8 12 -5 0 -9 -17 -9 -37z"/>
<path d="M1402 1203 c-10 -4 -10 -8 0 -21 8 -10 9 -13 1 -9 -7 5 -10 1 -9 -10
2 -11 12 -19 27 -20 18 -1 19 0 5 4 -19 5 -18 6 5 19 22 12 22 13 4 14 -15 0
-17 2 -7 9 11 7 11 9 0 13 -7 3 -19 3 -26 1z"/>
<path d="M2148 1202 c-10 -2 -18 -7 -18 -12 0 -5 7 -7 15 -4 21 8 19 -13 -2
-25 -10 -5 -15 -12 -11 -16 3 -3 12 0 19 8 12 13 16 13 32 0 9 -9 17 -11 17
-6 0 6 -6 13 -14 16 -8 3 -16 14 -18 24 -2 12 -10 17 -20 15z"/>
<path d="M2217 1196 c-4 -9 -2 -26 3 -38 l9 -23 0 23 c1 12 5 22 10 22 5 0 7
-9 4 -20 -3 -11 0 -20 6 -20 11 0 13 5 15 33 1 6 5 15 9 18 5 3 -1 9 -12 12
-12 3 -21 0 -21 -6 0 -8 -3 -7 -9 1 -7 11 -9 11 -14 -2z"/>
<path d="M2292 1178 c3 -32 5 -33 51 -35 47 -1 47 -1 46 30 -2 31 -2 31 -6 5
-2 -16 -8 -28 -13 -28 -13 0 -28 32 -23 48 3 8 -6 12 -27 12 -29 0 -31 -2 -28
-32z m30 -20 c-7 -7 -12 -8 -12 -2 0 14 12 26 19 19 2 -3 -1 -11 -7 -17z"/>
<path d="M2416 1187 c-9 -39 0 -48 42 -43 20 3 40 5 45 5 4 1 7 5 7 11 0 5 -7
7 -15 4 -11 -5 -15 1 -15 20 0 14 -4 26 -10 26 -5 0 -10 -4 -10 -10 0 -14 -28
-12 -32 2 -3 7 -8 0 -12 -15z m44 -21 c0 -9 -7 -12 -21 -9 -16 4 -17 8 -7 14
19 13 28 11 28 -5z"/>
<path d="M2545 1199 c-16 -4 -24 -7 -17 -8 6 0 12 -10 12 -20 0 -10 7 -21 15
-25 18 -7 20 10 3 18 -9 3 -7 9 6 20 25 20 19 24 -19 15z"/>
<path d="M2590 1175 c0 -29 4 -35 21 -35 13 0 18 4 13 13 -6 9 -4 9 7 1 19
-14 59 -15 59 -1 0 8 3 8 12 -1 20 -20 28 -14 28 23 0 32 -2 35 -30 35 -20 0
-30 -5 -30 -15 0 -17 17 -20 22 -4 2 7 10 4 18 -7 10 -12 11 -15 2 -10 -7 4
-23 1 -37 -8 -20 -13 -24 -13 -29 -1 -3 8 -3 22 0 30 5 11 -1 15 -25 15 -29 0
-31 -3 -31 -35z"/>
<path d="M2740 1181 c0 -33 11 -44 34 -35 24 9 19 23 -5 17 -19 -5 -21 -3 -17
20 3 15 1 27 -3 27 -5 0 -9 -13 -9 -29z"/>
<path d="M2815 1200 c-16 -4 -22 -8 -13 -9 10 -1 15 -7 12 -14 -6 -16 23 -43
34 -32 4 4 1 10 -5 12 -18 6 -16 33 2 33 8 0 15 5 15 10 0 11 -2 11 -45 0z"/>
<path d="M375 1190 c-4 -7 2 -9 19 -4 33 8 35 -13 4 -26 -23 -10 -23 -10 2 -7
18 1 25 8 25 22 0 22 -38 34 -50 15z"/>
<path d="M1142 1188 c-17 -17 -15 -33 3 -18 14 12 36 3 55 -22 8 -10 53 14 58
32 4 12 1 11 -15 -2 -25 -23 -29 -22 -62 2 -21 14 -31 16 -39 8z"/>
<path d="M1205 1190 c3 -5 8 -10 11 -10 2 0 4 5 4 10 0 6 -5 10 -11 10 -5 0
-7 -4 -4 -10z"/>
<path d="M1497 1193 c-15 -15 -7 -43 13 -43 11 0 20 6 20 13 0 8 3 8 9 -2 7
-11 10 -10 14 5 4 16 5 17 6 2 2 -27 51 -24 51 2 0 23 -10 26 -28 8 -9 -9 -12
-9 -12 1 0 8 -7 10 -20 6 -11 -4 -20 -2 -20 4 0 12 -23 15 -33 4z m19 -30
c-10 -10 -19 5 -10 18 6 11 8 11 12 0 2 -7 1 -15 -2 -18z"/>
<path d="M1630 1173 c0 -22 2 -25 10 -13 6 10 10 11 10 3 0 -7 11 -13 25 -13
14 0 25 6 26 13 0 6 5 1 10 -12 7 -18 13 -21 21 -13 8 8 8 16 -3 28 -9 12 -10
15 -1 10 7 -4 12 -2 12 4 0 14 -41 3 -52 -14 -5 -7 -8 -5 -8 5 0 16 -19 29
-41 29 -5 0 -9 -12 -9 -27z"/>
<path d="M1750 1176 c0 -16 5 -26 15 -26 8 0 15 6 15 14 0 7 -7 19 -15 26 -13
11 -15 8 -15 -14z"/>
<path d="M1854 1185 c-9 -22 4 -34 36 -33 16 1 27 5 24 10 -3 4 0 8 5 8 6 0
11 -4 11 -8 0 -4 9 -8 20 -9 11 -1 18 2 15 8 -4 5 -1 9 5 9 6 0 9 4 6 9 -4 5
-22 8 -41 7 -20 -2 -38 1 -41 5 -8 14 -34 10 -40 -6z m30 -16 c-3 -5 -10 -7
-15 -3 -5 3 -7 10 -3 15 3 5 10 7 15 3 5 -3 7 -10 3 -15z"/>
<path d="M1996 1184 c-4 -10 -2 -22 3 -27 14 -14 43 0 39 20 -4 24 -34 28 -42
7z m34 -9 c0 -8 -4 -15 -10 -15 -5 0 -10 7 -10 15 0 8 5 15 10 15 6 0 10 -7
10 -15z"/>
<path d="M2053 1171 c-2 -23 -1 -23 6 -6 8 20 8 20 13 0 5 -16 6 -15 7 6 1 15
-4 26 -12 26 -7 0 -14 -12 -14 -26z"/>
<path d="M290 1180 c0 -5 16 -10 36 -10 21 0 33 4 29 10 -3 6 -19 10 -36 10
-16 0 -29 -4 -29 -10z"/>
<path d="M1810 1181 c0 -7 -4 -9 -10 -6 -6 4 -10 -5 -10 -19 0 -14 2 -26 5
-26 8 0 26 52 20 58 -3 3 -5 0 -5 -7z"/>
<path d="M2096 1174 c-9 -22 -8 -24 9 -24 8 0 15 6 15 14 0 22 -17 28 -24 10z"/>
<path d="M465 1160 c3 -5 16 -10 28 -9 21 0 21 1 2 9 -28 12 -37 12 -30 0z"/>
<path d="M1025 1150 c3 -5 8 -10 11 -10 2 0 4 5 4 10 0 6 -5 10 -11 10 -5 0
-7 -4 -4 -10z"/>
<path d="M585 1030 c-3 -5 -12 -7 -19 -4 -13 5 -31 -24 -21 -34 3 -3 5 0 5 6
0 7 8 12 17 12 14 0 12 -4 -7 -25 -13 -14 -19 -25 -13 -25 14 0 39 31 47 58 7
22 2 30 -9 12z"/>
<path d="M641 1023 c-9 -16 -12 -16 -21 -3 -7 12 -10 8 -10 -17 0 -30 3 -33
28 -32 23 2 24 2 5 6 -28 5 -31 23 -4 23 10 0 21 7 24 15 9 22 -10 28 -22 8z"/>
<path d="M995 1030 c-3 -5 -1 -10 4 -10 6 0 11 5 11 10 0 6 -2 10 -4 10 -3 0
-8 -4 -11 -10z"/>
<path d="M1175 1030 c-4 -6 -15 -8 -25 -5 -10 3 -20 0 -23 -9 -4 -9 -14 -12
-26 -9 -12 3 -21 1 -21 -6 0 -5 7 -8 15 -5 8 4 15 1 15 -5 0 -6 -4 -11 -10
-11 -5 0 -10 -4 -10 -10 0 -16 29 1 35 21 4 10 15 19 26 19 24 0 24 -9 2 -26
-19 -14 -7 -19 13 -6 11 7 34 45 34 56 0 10 -18 7 -25 -4z"/>
<path d="M1639 1033 c-2 -19 -2 -40 1 -60 1 -13 4 -11 10 7 7 23 8 23 9 4 1
-20 6 -22 64 -21 34 1 52 3 40 5 -18 3 -23 10 -22 30 2 24 2 24 6 5 6 -31 23
-29 23 1 0 21 -5 25 -31 24 -20 -1 -26 -4 -17 -10 11 -6 11 -10 0 -17 -8 -4
-13 -12 -12 -17 1 -5 -4 -10 -10 -12 -8 -3 -11 6 -8 24 2 23 -1 29 -17 29 -11
0 -23 5 -27 10 -5 6 -8 5 -9 -2z"/>
<path d="M2068 1032 c-10 -2 -18 -7 -18 -12 0 -5 8 -11 18 -13 16 -4 16 -5 0
-6 -21 -1 -23 -14 -5 -29 8 -6 21 -6 37 0 24 9 24 10 6 24 -11 8 -14 14 -8 14
16 0 15 17 0 22 -7 2 -21 3 -30 0z"/>
<path d="M2660 1030 c0 -7 -7 -10 -15 -7 -8 4 -17 2 -20 -3 -4 -6 -23 -11 -43
-11 -25 -1 -29 -3 -14 -6 23 -4 23 -5 6 -24 -24 -27 -9 -24 32 7 19 15 38 24
42 20 4 -4 -1 -13 -11 -20 -18 -14 -24 -32 -7 -21 20 13 50 64 40 70 -5 3 -10
1 -10 -5z"/>
<path d="M2720 1025 c0 -8 -4 -15 -10 -15 -5 0 -10 5 -10 11 0 5 -4 7 -10 4
-5 -3 -10 -17 -10 -31 0 -21 4 -24 33 -23 23 1 26 3 10 6 -26 5 -31 23 -8 23
8 0 15 2 15 4 0 2 3 11 6 20 3 9 1 16 -5 16 -6 0 -11 -7 -11 -15z"/>
<path d="M140 1006 c0 -26 16 -43 28 -31 4 4 2 10 -4 12 -7 2 -10 13 -7 23 3
11 0 20 -6 20 -6 0 -11 -11 -11 -24z"/>
<path d="M235 1022 c-6 -4 -12 -17 -12 -29 -1 -18 4 -23 20 -22 16 0 18 2 7 7
-8 4 -16 13 -18 21 -3 12 0 12 13 1 8 -7 18 -10 22 -6 10 10 -20 36 -32 28z"/>
<path d="M295 1019 c-17 -6 -17 -8 -2 -8 10 -1 17 -9 17 -19 0 -10 7 -19 15
-19 18 0 20 13 3 20 -10 4 -10 8 0 15 19 13 -6 22 -33 11z"/>
<path d="M365 1020 c-11 -5 -14 -9 -7 -9 6 -1 11 -4 11 -8 -1 -5 -1 -16 0 -26
1 -24 21 -11 21 14 0 11 7 19 18 19 14 0 15 2 2 10 -17 11 -19 11 -45 0z"/>
<path d="M488 1023 c6 -2 18 -2 25 0 6 3 1 5 -13 5 -14 0 -19 -2 -12 -5z"/>
<path d="M751 1008 c1 -17 2 -19 6 -5 5 21 33 23 33 2 0 -7 -8 -19 -17 -24
-17 -10 -17 -10 0 -11 17 0 39 38 30 53 -2 4 -15 7 -29 7 -19 0 -24 -5 -23
-22z"/>
<path d="M914 1022 c-14 -9 -25 -52 -14 -52 5 0 11 10 13 23 l4 22 2 -22 c1
-27 13 -29 31 -8 11 13 10 14 -3 9 -10 -4 -16 1 -19 15 -2 12 -7 18 -14 13z"/>
<path d="M971 1000 c1 -19 3 -27 6 -18 3 11 11 15 21 12 13 -5 14 -4 3 4 -7 5
-17 16 -22 23 -6 9 -8 2 -8 -21z"/>
<path d="M1035 1015 c-15 -48 -15 -49 7 -25 21 24 21 24 15 3 -3 -13 -1 -23 4
-23 5 0 9 11 9 24 0 27 -28 44 -35 21z"/>
<path d="M1263 1023 c-7 -3 -13 -14 -13 -25 0 -17 -4 -19 -25 -14 -14 4 -25 2
-25 -3 0 -17 91 -11 97 6 7 18 -17 42 -34 36z m17 -25 c0 -16 -3 -19 -11 -11
-6 6 -8 16 -5 22 11 17 16 13 16 -11z"/>
<path d="M1318 1025 c-8 -8 3 -55 13 -55 5 0 9 14 9 30 0 28 -9 38 -22 25z"/>
<path d="M1426 1022 c-14 -3 -16 -6 -6 -12 11 -7 11 -11 0 -24 -7 -9 -11 -19
-8 -21 3 -3 11 1 17 9 11 14 16 13 38 -1 24 -16 26 -16 40 2 8 11 9 21 4 23
-5 2 -7 11 -4 20 5 13 3 14 -7 5 -7 -7 -21 -9 -34 -4 -11 4 -30 5 -40 3z m63
-21 c7 -5 10 -14 7 -20 -8 -13 -46 3 -46 19 0 12 20 13 39 1z"/>
<path d="M1524 995 c0 -20 3 -32 7 -28 13 14 15 63 2 63 -5 0 -8 -16 -9 -35z"/>
<path d="M1560 993 c1 -36 2 -37 15 -19 15 20 15 20 16 0 0 -10 3 -13 6 -6 2
6 8 10 12 8 4 -3 8 9 9 25 2 26 -1 29 -28 29 -28 0 -30 -2 -30 -37z"/>
<path d="M1797 1024 c-4 -4 -1 -14 6 -22 6 -9 7 -13 2 -10 -6 4 -11 -1 -11
-11 0 -13 8 -18 26 -17 22 1 26 6 25 31 0 22 -5 31 -20 33 -12 2 -24 0 -28 -4z
m38 -23 c3 -5 1 -12 -5 -16 -5 -3 -10 1 -10 9 0 18 6 21 15 7z"/>
<path d="M1868 995 c-4 -36 1 -42 19 -24 8 8 13 8 17 0 14 -22 24 -10 16 18
-4 16 -6 32 -2 35 3 3 -6 6 -20 6 -22 0 -26 -5 -30 -35z"/>
<path d="M1949 1014 c-10 -13 -10 -17 2 -25 10 -6 10 -9 2 -9 -7 0 -13 -3 -13
-7 0 -5 13 -8 29 -8 24 0 29 4 29 25 0 38 -26 51 -49 24z m31 2 c0 -3 -4 -8
-10 -11 -5 -3 -10 -1 -10 4 0 6 5 11 10 11 6 0 10 -2 10 -4z"/>
<path d="M2027 1023 c-10 -9 -9 -51 1 -57 5 -3 8 11 8 29 -1 19 -1 35 -2 35 0
0 -4 -3 -7 -7z"/>
<path d="M2130 997 c0 -29 3 -32 30 -33 32 -2 42 19 15 30 -9 3 -15 0 -15 -10
0 -8 -5 -12 -10 -9 -8 5 -8 11 -1 19 6 7 10 15 8 17 -1 2 2 1 8 -3 14 -12 25
-9 25 7 0 10 -10 15 -30 15 -27 0 -30 -3 -30 -33z"/>
<path d="M2208 1000 c-3 -16 -3 -28 0 -26 2 3 15 1 28 -4 28 -11 38 1 30 36
-10 38 -52 33 -58 -6z m49 -7 c2 -6 -4 -10 -13 -9 -10 2 -20 8 -22 15 -3 8 3
12 14 9 9 -1 19 -8 21 -15z"/>
<path d="M2331 1021 c-11 -7 -11 -9 0 -14 11 -4 12 -7 2 -18 -21 -21 -15 -34
7 -14 11 10 20 13 20 7 0 -7 8 -12 17 -12 15 0 14 2 -3 14 -23 17 -14 30 16
21 16 -5 19 -12 14 -28 -6 -21 -6 -22 12 -3 14 13 16 20 6 23 -14 5 -7 23 10
23 7 0 8 -12 4 -32 -4 -20 -3 -29 3 -23 10 10 14 30 12 53 -1 14 -37 16 -46 2
-4 -6 -15 -6 -31 0 -30 12 -26 12 -43 1z"/>
<path d="M2481 993 c0 -21 3 -32 6 -24 5 11 7 11 14 0 6 -10 9 -10 9 -2 0 7 6
10 14 7 10 -4 13 0 11 13 -2 10 -4 24 -4 31 -1 6 -12 12 -26 12 -22 0 -25 -4
-24 -37z"/>
<path d="M2563 1023 c9 -2 23 -2 30 0 6 3 -1 5 -18 5 -16 0 -22 -2 -12 -5z"/>
<path d="M187 1000 c3 -11 9 -17 14 -15 10 7 1 35 -11 35 -5 0 -6 -9 -3 -20z"/>
<path d="M1200 1010 c0 -5 7 -6 17 -3 12 5 14 3 8 -7 -5 -9 -4 -11 3 -6 19 11
14 26 -8 26 -11 0 -20 -4 -20 -10z"/>
<path d="M1358 1015 c-12 -12 5 -46 21 -43 18 4 29 48 11 48 -6 0 -8 -4 -5
-10 3 -5 2 -10 -4 -10 -5 0 -11 5 -13 11 -2 5 -6 7 -10 4z"/>
<path d="M495 1000 c25 -6 27 -8 13 -14 -10 -5 -18 -12 -18 -17 0 -6 9 -5 20
1 32 17 25 40 -12 39 l-33 -1 30 -8z"/>
<path d="M670 1000 c0 -5 16 -10 35 -10 19 0 35 5 35 10 0 6 -16 10 -35 10
-19 0 -35 -4 -35 -10z"/>
<path d="M820 1000 c0 -5 14 -10 30 -10 17 0 30 5 30 10 0 6 -13 10 -30 10
-16 0 -30 -4 -30 -10z"/>
<path d="M2750 1000 c0 -5 16 -10 35 -10 19 0 35 5 35 10 0 6 -16 10 -35 10
-19 0 -35 -4 -35 -10z"/>
<path d="M430 975 c0 -9 5 -15 11 -13 6 2 11 8 11 13 0 5 -5 11 -11 13 -6 2
-11 -4 -11 -13z"/>
<path d="M580 851 c0 -5 -13 -11 -30 -14 -16 -4 -30 -12 -30 -18 0 -7 -8 -18
-17 -25 -11 -8 -13 -13 -6 -14 7 0 20 11 29 25 9 14 26 25 38 25 21 -1 21 -1
-3 -20 -16 -14 -19 -20 -8 -20 17 0 32 17 41 48 5 13 3 22 -3 22 -6 0 -11 -4
-11 -9z"/>
<path d="M941 853 c-1 -7 -8 -10 -16 -7 -8 4 -15 1 -15 -5 0 -6 5 -11 11 -11
5 0 7 -5 3 -11 -3 -6 0 -15 7 -20 9 -6 0 -8 -26 -8 -22 1 -32 3 -22 6 30 8 18
48 -15 49 -23 1 -26 -2 -18 -16 10 -18 -4 -40 -26 -40 -13 0 -13 17 -1 38 10
14 -9 23 -38 18 -14 -2 -19 -11 -20 -34 0 -18 3 -32 7 -32 4 0 8 9 8 20 0 11
4 20 9 20 5 0 7 -8 4 -19 -4 -17 3 -18 94 -19 63 0 91 2 78 8 -11 5 -14 9 -7
9 6 1 12 6 12 12 0 5 -4 8 -9 4 -5 -3 -13 -1 -16 5 -4 6 -3 10 2 9 19 -3 33 2
33 12 0 6 -6 9 -14 6 -8 -3 -17 -1 -20 6 -3 9 -5 9 -5 0z"/>
<path d="M147 843 c-11 -10 -8 -33 3 -33 6 0 10 6 10 13 0 8 7 14 15 14 20 0
19 -12 -2 -32 -16 -16 -15 -17 3 -13 12 2 20 13 22 31 3 23 0 27 -21 27 -13 0
-27 -3 -30 -7z"/>
<path d="M315 842 c-5 -4 -11 -11 -12 -17 -1 -5 -4 -19 -8 -30 -6 -19 -6 -19
8 -2 10 13 16 14 19 6 5 -15 38 -5 38 11 0 6 -4 8 -10 5 -5 -3 -10 3 -10 14 0
22 -8 26 -25 13z"/>
<path d="M370 820 c0 -34 5 -37 26 -15 9 8 11 15 5 15 -6 0 -11 7 -11 15 0 8
-4 15 -10 15 -5 0 -10 -13 -10 -30z"/>
<path d="M400 839 c0 -5 5 -7 10 -4 6 3 10 8 10 11 0 2 -4 4 -10 4 -5 0 -10
-5 -10 -11z"/>
<path d="M440 831 c0 -11 -4 -23 -10 -26 -5 -3 -10 -11 -10 -16 0 -6 6 -7 13
-2 6 4 20 6 30 5 22 -4 24 43 1 52 -23 9 -24 8 -24 -13z m30 -21 c0 -5 -4 -10
-10 -10 -5 0 -10 5 -10 10 0 6 5 10 10 10 6 0 10 -4 10 -10z"/>
<path d="M994 815 c0 -21 3 -30 8 -22 10 16 10 44 0 51 -4 2 -8 -11 -8 -29z"/>
<path d="M1031 820 c-9 -28 -8 -30 15 -30 16 0 24 6 24 18 0 14 2 15 10 2 8
-12 10 -11 10 8 0 20 2 21 20 10 14 -9 16 -14 7 -18 -15 -6 -21 -30 -8 -30 6
0 13 5 16 10 5 8 11 7 20 0 17 -14 61 -9 58 7 -2 7 4 10 13 6 13 -5 13 -7 2
-14 -10 -7 -9 -9 5 -9 13 0 17 7 15 30 -1 17 -5 31 -8 31 -37 9 -50 5 -50 -17
0 -12 -5 -26 -12 -30 -7 -4 -8 -3 -4 4 4 8 0 12 -11 12 -17 1 -17 1 0 11 9 6
15 15 11 21 -4 6 -10 5 -15 -3 -6 -10 -9 -11 -9 -1 0 7 -14 12 -35 12 -19 0
-35 -4 -35 -10 0 -5 -5 -10 -11 -10 -5 0 -7 5 -4 10 3 6 2 10 -3 10 -6 0 -15
-13 -21 -30z m29 -10 c0 -5 -5 -10 -11 -10 -5 0 -7 5 -4 10 3 6 8 10 11 10 2
0 4 -4 4 -10z"/>
<path d="M1265 840 c-20 -9 -20 -9 0 -9 15 -1 17 -3 6 -10 -9 -6 -10 -11 -2
-15 6 -4 8 -13 4 -19 -4 -7 -1 -7 9 1 9 8 14 20 11 28 -3 9 1 14 13 14 16 0
17 2 4 10 -17 11 -19 11 -45 0z"/>
<path d="M1338 841 c10 -6 10 -10 -3 -21 -14 -11 -13 -14 6 -28 25 -17 46 -3
34 25 -5 10 -7 21 -7 26 1 4 -8 7 -20 7 -16 0 -19 -3 -10 -9z m32 -31 c0 -5
-7 -7 -15 -4 -8 4 -15 8 -15 10 0 2 7 4 15 4 8 0 15 -4 15 -10z"/>
<path d="M1399 848 c-9 -40 8 -77 29 -64 15 9 16 36 2 36 -5 0 -9 5 -7 11 1 6
-4 14 -10 16 -7 3 -13 3 -14 1z m31 -48 c0 -5 -2 -10 -4 -10 -3 0 -8 5 -11 10
-3 6 -1 10 4 10 6 0 11 -4 11 -10z"/>
<path d="M1460 835 c-7 -8 -10 -22 -6 -30 7 -18 52 -20 59 -2 4 10 6 10 6 0 2
-29 21 -10 20 20 -1 17 -3 24 -6 15 -6 -22 -19 -23 -27 -3 -7 19 -30 19 -46 0z
m14 -20 c-4 -8 -8 -15 -10 -15 -2 0 -4 7 -4 15 0 8 4 15 10 15 5 0 7 -7 4 -15z
m22 -12 c-10 -10 -19 5 -10 18 6 11 8 11 12 0 2 -7 1 -15 -2 -18z"/>
<path d="M1596 835 c4 -8 11 -12 18 -8 6 3 6 1 -1 -8 -7 -7 -13 -20 -13 -28 0
-14 1 -14 10 -1 5 8 10 11 10 5 0 -5 11 -11 25 -11 16 -1 22 2 18 10 -4 6 -6
21 -4 34 2 19 -2 22 -33 22 -27 0 -34 -3 -30 -15z m54 -5 c0 -5 -4 -10 -10
-10 -5 0 -10 5 -10 10 0 6 5 10 10 10 6 0 10 -4 10 -10z"/>
<path d="M1688 843 c7 -3 16 -2 19 1 4 3 -2 6 -13 5 -11 0 -14 -3 -6 -6z"/>
<path d="M1745 840 c-17 -7 -17 -9 -2 -9 9 -1 17 -6 17 -12 0 -5 -4 -8 -8 -5
-4 2 -8 -4 -8 -15 0 -26 20 -18 24 9 2 12 10 22 18 22 8 0 14 5 14 10 0 12
-27 12 -55 0z"/>
<path d="M1867 843 c-9 -2 -15 -9 -11 -14 3 -5 10 -7 15 -4 15 10 10 -7 -8
-27 -17 -19 -5 -26 15 -6 8 8 15 8 27 -2 18 -15 20 1 3 18 -10 10 -10 15 0 21
11 7 10 10 -3 15 -9 3 -17 5 -18 5 -1 -1 -10 -3 -20 -6z"/>
<path d="M1941 836 c-9 -11 -9 -15 1 -18 10 -4 10 -8 -1 -21 -7 -10 -10 -17
-6 -17 4 0 14 8 22 18 14 16 14 16 9 -1 -8 -26 15 -16 25 10 5 15 3 26 -8 35
-15 11 -16 11 -10 -4 4 -13 1 -18 -9 -18 -10 0 -14 6 -10 15 7 19 2 19 -13 1z"/>
<path d="M2010 816 c0 -27 4 -34 18 -31 9 2 22 4 28 4 6 1 9 14 6 31 -3 24 -9
30 -28 30 -21 0 -24 -5 -24 -34z"/>
<path d="M2098 842 c-11 -2 -18 -13 -18 -28 0 -21 3 -23 19 -14 26 14 31 13
31 -6 0 -8 5 -12 10 -9 6 3 10 17 10 29 0 24 -20 35 -52 28z m12 -16 c0 -3 -4
-8 -10 -11 -5 -3 -10 -1 -10 4 0 6 5 11 10 11 6 0 10 -2 10 -4z"/>
<path d="M2172 838 c-23 -23 -14 -45 19 -46 27 -1 30 2 27 26 -3 29 -26 40
-46 20z m12 -23 c-4 -8 -8 -15 -10 -15 -2 0 -4 7 -4 15 0 8 4 15 10 15 5 0 7
-7 4 -15z m22 -12 c-10 -10 -19 5 -10 18 6 11 8 11 12 0 2 -7 1 -15 -2 -18z"/>
<path d="M2239 846 c-5 -6 -4 -48 3 -58 6 -10 8 -8 8 5 0 9 5 17 11 17 5 0 8
-4 4 -9 -3 -5 -1 -12 5 -16 5 -3 10 -1 10 5 0 6 4 9 8 6 5 -3 9 1 9 9 0 8 -5
11 -11 8 -6 -4 -5 1 3 10 11 14 11 17 0 21 -12 4 -47 5 -50 2z"/>
<path d="M2322 829 c-15 -23 -15 -26 1 -26 6 0 19 -3 27 -7 11 -4 15 1 16 18
2 31 -28 41 -44 15z m28 -9 c0 -5 -5 -10 -11 -10 -5 0 -7 5 -4 10 3 6 8 10 11
10 2 0 4 -4 4 -10z"/>
<path d="M2393 841 c-11 -8 -13 -42 -2 -35 5 3 9 -2 9 -11 0 -12 6 -15 23 -10
12 4 26 11 32 16 14 14 23 11 28 -8 3 -12 5 -9 6 8 0 14 6 30 13 37 23 23 -8
12 -34 -13 -15 -14 -30 -25 -33 -25 -11 0 -5 28 8 33 6 2 0 6 -15 9 -15 3 -30
2 -35 -1z m27 -21 c0 -5 -4 -10 -10 -10 -5 0 -10 5 -10 10 0 6 5 10 10 10 6 0
10 -4 10 -10z"/>
<path d="M2529 829 c-17 -15 -19 -19 -7 -15 10 3 31 -2 48 -12 31 -18 59 -11
68 19 3 9 -3 7 -17 -6 -17 -15 -26 -17 -39 -8 -9 6 -16 18 -14 27 4 22 -11 20
-39 -5z"/>
<path d="M2590 841 c0 -5 5 -13 10 -16 6 -3 10 -2 10 4 0 5 -4 13 -10 16 -5 3
-10 2 -10 -4z"/>
<path d="M2650 814 c0 -21 4 -33 10 -29 6 4 8 11 5 16 -4 5 2 9 12 9 17 1 17
1 0 11 -9 6 -15 14 -12 20 4 5 1 9 -4 9 -6 0 -11 -16 -11 -36z"/>
<path d="M2703 827 c0 -30 35 -56 48 -35 5 7 9 22 9 32 0 11 3 16 8 12 7 -8 8
-13 11 -41 1 -10 11 -15 29 -14 l27 1 -25 7 -25 7 23 8 c42 14 21 39 -38 43
-18 1 -41 -3 -49 -10 -12 -9 -13 -9 -7 1 4 6 3 12 -2 12 -5 0 -9 -11 -9 -23z
m117 -1 c0 -2 -7 -7 -16 -10 -8 -3 -12 -2 -9 4 6 10 25 14 25 6z m-82 -31 c-3
-3 -9 2 -12 12 -6 14 -5 15 5 6 7 -7 10 -15 7 -18z"/>
<path d="M616 828 c3 -5 1 -15 -6 -22 -9 -12 -1 -14 43 -14 52 1 54 2 48 27
l-5 26 -4 -25 c-4 -23 -5 -23 -12 -5 -5 13 -17 20 -38 21 -18 1 -29 -3 -26 -8z
m49 -7 c3 -5 1 -12 -5 -16 -5 -3 -10 1 -10 9 0 18 6 21 15 7z"/>
<path d="M720 825 c0 -8 6 -15 13 -15 8 0 7 -4 -3 -10 -13 -8 -12 -10 3 -10
12 0 17 8 17 25 0 16 -6 25 -15 25 -8 0 -15 -7 -15 -15z"/>
<path d="M1558 833 c7 -3 16 -2 19 1 4 3 -2 6 -13 5 -11 0 -14 -3 -6 -6z"/>
<path d="M215 820 c-4 -6 10 -10 35 -10 25 0 39 4 35 10 -3 6 -19 10 -35 10
-16 0 -32 -4 -35 -10z"/>
<path d="M490 819 c0 -5 5 -7 10 -4 6 3 10 8 10 11 0 2 -4 4 -10 4 -5 0 -10
-5 -10 -11z"/>
<path d="M1670 815 c0 -12 6 -15 23 -10 17 5 18 4 7 -4 -16 -11 -8 -27 9 -16
13 8 15 35 2 35 -5 0 -16 3 -25 6 -11 4 -16 1 -16 -11z"/>
<path d="M1550 799 c0 -5 9 -9 20 -9 11 0 20 2 20 4 0 2 -9 6 -20 9 -11 3 -20
1 -20 -4z"/>
<path d="M1810 801 c0 -5 5 -13 10 -16 6 -3 10 -2 10 4 0 5 -4 13 -10 16 -5 3
-10 2 -10 -4z"/>
<path d="M140 637 c0 -31 2 -33 35 -33 33 0 35 2 35 33 0 31 -2 33 -35 33 -33
0 -35 -2 -35 -33z m44 17 c9 -3 15 -16 15 -28 -1 -16 -2 -17 -6 -3 -2 9 -11
17 -19 17 -8 0 -14 5 -14 10 0 12 3 12 24 4z"/>
<path d="M251 653 c0 -12 -9 -26 -18 -32 -10 -5 -14 -13 -10 -18 5 -4 14 0 21
9 12 16 14 16 29 0 9 -9 17 -11 17 -5 0 6 -6 13 -14 16 -8 3 -16 16 -19 29 -4
22 -4 22 -6 1z"/>
<path d="M307 656 c-4 -9 -2 -26 3 -38 l9 -23 0 23 c1 12 6 22 12 22 6 0 8 -9
4 -20 -4 -11 -2 -20 4 -20 11 0 13 5 15 33 1 6 5 15 9 18 5 3 -1 9 -12 12 -12
3 -21 0 -21 -6 0 -8 -3 -7 -9 1 -7 11 -9 11 -14 -2z"/>
<path d="M382 638 c3 -30 6 -33 36 -35 28 -1 32 2 26 15 -3 10 -6 25 -6 35 1
12 -7 17 -29 17 -28 0 -30 -2 -27 -32z m30 -20 c-7 -7 -12 -8 -12 -2 0 14 12
26 19 19 2 -3 -1 -11 -7 -17z"/>
<path d="M466 647 c-3 -15 -4 -32 -1 -37 10 -16 88 -7 93 10 5 13 3 13 -11 1
-15 -12 -17 -10 -17 18 0 17 -4 31 -10 31 -5 0 -10 -4 -10 -10 0 -14 -28 -12
-32 2 -3 7 -8 0 -12 -15z m44 -20 c0 -7 -9 -13 -20 -14 -22 -2 -27 12 -7 20
21 9 27 8 27 -6z"/>
<path d="M590 660 c-19 -4 -27 -8 -18 -9 11 0 15 -7 12 -15 -3 -8 3 -19 15
-26 14 -7 21 -7 21 0 0 5 -4 10 -10 10 -5 0 -10 7 -10 15 0 8 7 15 15 15 8 0
15 5 15 10 0 6 -1 9 -2 9 -2 -1 -19 -5 -38 -9z"/>
<path d="M638 635 c-3 -29 -1 -35 14 -35 10 0 18 5 18 12 0 9 3 9 12 0 15 -15
62 -16 52 -1 -5 8 -1 8 14 0 30 -16 32 -15 32 24 0 33 -2 35 -33 35 -29 0 -33
-3 -32 -27 0 -14 -5 -28 -12 -30 -8 -3 -10 6 -8 26 4 28 2 31 -24 31 -25 0
-29 -4 -33 -35z m36 17 c-7 -4 -14 -16 -17 -27 -4 -15 -5 -14 -6 8 -1 20 4 27
17 27 11 0 13 -3 6 -8z m95 -31 c-1 -13 -2 -12 -6 2 -3 11 -11 16 -18 13 -9
-3 -12 0 -8 10 7 19 34 -1 32 -25z"/>
<path d="M790 641 c0 -17 4 -32 9 -35 12 -8 41 4 41 16 0 6 -6 5 -15 -2 -12
-10 -16 -9 -21 4 -3 9 -4 23 0 31 3 8 1 15 -4 15 -6 0 -10 -13 -10 -29z"/>
<path d="M870 659 c-19 -3 -27 -7 -18 -8 10 0 15 -7 12 -14 -6 -16 23 -43 34
-32 4 4 1 10 -5 12 -18 6 -16 30 2 37 10 3 15 -1 15 -14 0 -24 18 -36 33 -21
8 8 8 11 -1 11 -7 0 -12 8 -12 18 0 20 -6 21 -60 11z"/>
<path d="M997 663 c-11 -10 -8 -25 3 -18 6 3 13 -1 16 -9 7 -19 23 -21 20 -3
-4 29 -24 45 -39 30z"/>
<path d="M1061 661 c-11 -7 -11 -9 0 -14 12 -5 12 -6 0 -6 -11 -1 -11 -4 0
-18 12 -15 12 -16 -1 -8 -11 6 -12 5 -4 -4 7 -8 18 -9 35 -2 13 5 18 10 12 10
-7 1 -13 8 -13 16 0 8 6 15 13 15 8 0 7 4 -3 10 -18 12 -21 12 -39 1z"/>
<path d="M1137 662 c-18 -4 -18 -4 0 -19 10 -8 13 -12 6 -9 -7 4 -11 -1 -10
-14 2 -26 21 -20 25 8 2 11 11 22 20 24 14 3 14 5 -3 9 -11 3 -28 3 -38 1z"/>
<path d="M220 650 c0 -5 5 -10 10 -10 6 0 10 5 10 10 0 6 -4 10 -10 10 -5 0
-10 -4 -10 -10z"/>
<path d="M270 650 c0 -5 5 -10 10 -10 6 0 10 5 10 10 0 6 -4 10 -10 10 -5 0
-10 -4 -10 -10z"/>
<path d="M960 639 c7 -11 14 -19 16 -16 7 7 -7 37 -17 37 -6 0 -5 -9 1 -21z"/>
<path d="M992 618 c3 -7 12 -14 22 -14 13 -2 13 -1 1 3 -8 2 -13 9 -10 14 4 5
1 9 -5 9 -7 0 -10 -6 -8 -12z"/>
<path d="M1196 623 c-11 -11 -6 -23 9 -23 8 0 15 4 15 9 0 13 -16 22 -24 14z"/>
</g>
</svg>
