<?xml version="1.0" standalone="no"?>
<!DOCTYPE svg PUBLIC "-//W3C//DTD SVG 20010904//EN"
 "http://www.w3.org/TR/2001/REC-SVG-20010904/DTD/svg10.dtd">
<svg version="1.0" xmlns="http://www.w3.org/2000/svg"
 width="364.000000pt" height="59.000000pt" viewBox="0 0 364.000000 59.000000"
 preserveAspectRatio="xMidYMid meet">

<g transform="translate(0.000000,59.000000) scale(0.100000,-0.100000)"
fill="#000000" stroke="none">
<path d="M860 445 c-26 -32 13 -81 48 -59 22 14 27 41 12 59 -16 19 -44 19
-60 0z m46 -16 c10 -17 -13 -36 -27 -22 -12 12 -4 33 11 33 5 0 12 -5 16 -11z"/>
<path d="M1745 431 c-3 -11 -17 -36 -31 -57 -25 -36 -25 -39 -8 -51 16 -12 16
-13 1 -13 -10 0 -17 -8 -17 -20 0 -18 7 -20 70 -20 l70 0 0 -45 c0 -45 0 -45
-35 -45 -33 0 -35 2 -35 35 0 31 -3 35 -25 35 -24 0 -25 -2 -25 -65 0 -63 1
-65 25 -65 14 0 25 5 25 10 0 6 38 10 95 10 57 0 95 -4 95 -10 0 -5 14 -10 30
-10 l30 0 0 65 0 65 -30 0 c-28 0 -30 -3 -30 -35 0 -33 -2 -35 -35 -35 -35 0
-35 0 -35 45 l0 45 70 0 c63 0 70 2 70 20 0 18 -7 20 -70 20 l-70 0 0 30 0 30
65 0 c58 0 65 2 65 20 0 19 -7 20 -106 20 -87 0 -105 2 -101 14 6 14 -12 26
-38 26 -8 0 -16 -9 -20 -19z m85 -91 c0 -29 -1 -30 -50 -30 l-51 0 23 30 c15
21 30 30 50 30 24 0 28 -4 28 -30z"/>
<path d="M2202 442 c-7 -5 -10 -16 -6 -25 9 -26 -30 -22 -48 4 -10 16 -20 20
-35 15 -14 -4 -20 -12 -16 -22 3 -9 -2 -14 -16 -14 -17 0 -21 -6 -21 -35 0
-28 4 -35 20 -35 11 0 20 7 20 15 0 13 21 15 125 15 104 0 125 -2 125 -15 0
-8 9 -15 20 -15 16 0 20 7 20 35 0 28 -4 35 -20 35 -22 0 -26 10 -9 27 8 8 5
13 -12 18 -18 6 -27 2 -44 -19 -26 -33 -42 -33 -57 -1 -12 26 -24 30 -46 17z"/>
<path d="M2570 385 l0 -65 -32 1 c-18 1 -25 3 -15 6 9 2 17 9 17 14 0 7 -30
89 -35 97 -1 1 -14 -2 -29 -8 -25 -9 -26 -11 -13 -37 8 -16 18 -38 21 -50 7
-20 4 -23 -23 -23 -24 0 -31 -4 -31 -20 0 -17 7 -20 44 -20 41 0 43 -1 38 -25
-4 -24 -55 -77 -84 -88 -10 -4 -10 -8 3 -22 15 -15 19 -16 47 -1 39 20 79 68
87 106 4 16 13 30 21 30 11 0 14 -15 14 -63 0 -36 5 -68 12 -75 17 -17 123
-16 137 2 18 21 10 90 -11 94 -11 2 -18 -6 -23 -27 -5 -24 -12 -31 -31 -31
-22 0 -24 4 -24 50 l0 50 50 0 c43 0 50 3 50 20 0 16 -7 20 -35 20 l-35 0 26
51 c14 28 24 53 22 55 -3 2 -14 5 -26 6 -18 2 -27 -7 -46 -49 -22 -47 -23 -52
-8 -56 10 -3 5 -5 -10 -6 -28 -1 -28 -1 -28 64 0 63 -1 65 -25 65 -24 0 -25
-2 -25 -65z"/>
<path d="M2812 412 c-13 -20 -20 -38 -15 -39 5 -2 7 -19 5 -38 -3 -27 -1 -35
12 -35 13 0 16 -14 16 -87 l0 -88 140 0 140 0 0 48 0 47 -112 2 -113 2 98 3
97 4 0 44 0 44 -122 4 -123 3 128 2 c107 2 127 0 127 -13 0 -8 9 -15 20 -15
16 0 20 7 20 30 l0 30 -70 0 c-71 0 -87 10 -48 31 18 9 24 8 34 -6 13 -18 60
-12 49 6 -4 5 5 9 19 9 16 0 26 6 26 15 0 11 -12 15 -51 15 -31 0 -48 4 -44
10 3 6 -4 10 -18 10 -22 0 -87 -60 -87 -81 0 -5 -25 -9 -55 -9 -53 0 -55 1
-43 20 15 24 24 25 36 4 6 -11 16 -14 31 -9 12 3 19 11 16 16 -4 5 3 9 14 9
12 0 21 7 21 15 0 10 -10 15 -34 15 -19 0 -38 5 -41 10 -14 22 -50 9 -73 -28z
m218 -137 c0 -12 -14 -15 -70 -15 -56 0 -70 3 -70 15 0 12 14 15 70 15 56 0
70 -3 70 -15z m30 -100 c0 -12 -16 -15 -85 -15 -69 0 -85 3 -85 15 0 12 16 15
85 15 69 0 85 -3 85 -15z"/>
<path d="M3182 403 c-18 -28 -20 -38 -10 -44 20 -13 27 -11 40 11 16 26 25 25
33 -1 5 -16 12 -19 31 -15 14 4 24 2 24 -4 0 -5 -24 -10 -55 -10 -48 0 -55 -3
-55 -20 0 -16 8 -20 58 -23 55 -3 54 -3 -15 -5 -66 -2 -73 -4 -73 -22 0 -19 7
-20 118 -22 l117 -2 -112 -3 c-105 -3 -113 -5 -113 -23 0 -16 7 -20 33 -20 18
0 27 -4 20 -8 -9 -5 -5 -17 13 -40 22 -28 28 -31 47 -21 32 17 32 17 7 44
l-23 25 61 0 c48 0 62 -3 62 -15 0 -10 -10 -15 -31 -15 -26 0 -30 -3 -27 -22
2 -19 10 -24 46 -26 52 -4 72 10 72 49 0 24 4 29 25 29 37 0 35 37 -2 43 -26
4 -26 4 5 6 25 1 32 5 32 21 0 18 -7 20 -77 22 l-78 2 68 3 c59 3 67 6 67 23
0 18 -7 20 -65 20 -36 0 -65 4 -65 8 0 5 9 17 21 28 20 18 30 14 42 -20 1 -5
13 -5 26 -1 14 4 20 12 17 21 -4 10 2 14 19 14 16 0 25 6 25 15 0 11 -12 15
-44 15 -25 0 -48 5 -51 10 -12 19 -41 10 -64 -21 -19 -26 -21 -33 -10 -41 10
-6 5 -8 -15 -6 -34 3 -49 28 -17 28 12 0 21 6 21 15 0 11 -11 15 -41 15 -24 0
-38 4 -34 10 4 6 -6 10 -22 10 -21 -1 -34 -10 -51 -37z"/>
<path d="M980 286 c0 -174 3 -180 83 -152 72 26 146 75 190 127 l37 43 -22 12
c-21 12 -27 8 -73 -36 -27 -27 -72 -60 -100 -75 l-50 -26 -3 125 -3 126 -29 0
-30 0 0 -144z"/>
<path d="M240 395 c0 -25 1 -25 90 -25 50 0 90 -3 90 -6 0 -3 -14 -25 -30 -49
-33 -49 -93 -101 -157 -137 -37 -21 -40 -25 -28 -41 13 -18 15 -17 57 4 23 12
62 37 86 56 l42 34 62 -55 63 -56 20 21 20 20 -25 22 c-14 12 -42 36 -63 53
l-37 31 35 67 c19 37 33 72 29 77 -3 5 -61 9 -130 9 l-124 0 0 -25z"/>
<path d="M570 395 l0 -25 111 0 112 0 -6 -42 c-10 -74 -68 -128 -163 -149 -40
-9 -53 -16 -49 -27 3 -7 5 -18 5 -24 0 -29 155 24 204 70 49 47 87 165 64 202
-12 18 -24 20 -145 20 l-133 0 0 -25z"/>
<path d="M2190 330 c0 -5 -25 -10 -55 -10 l-55 0 0 -56 0 -55 55 6 55 7 0 -31
0 -31 -65 0 c-60 0 -65 -2 -65 -22 0 -21 1 -21 145 -14 98 4 145 3 145 -4 0
-14 13 -13 34 3 18 13 17 16 -8 55 -14 23 -22 42 -16 42 5 0 10 23 10 50 l0
50 -60 0 c-33 0 -60 4 -60 10 0 6 -13 10 -30 10 -16 0 -30 -4 -30 -10z m0 -60
c0 -16 -7 -20 -30 -20 -23 0 -30 4 -30 20 0 16 7 20 30 20 23 0 30 -4 30 -20z
m120 0 c0 -16 -7 -20 -30 -20 -23 0 -30 4 -30 20 0 16 7 20 30 20 23 0 30 -4
30 -20z m-4 -75 c2 -21 -2 -25 -27 -25 -24 0 -29 4 -29 25 0 21 5 25 28 25 22
0 27 -5 28 -25z"/>
<path d="M1320 275 l0 -25 165 0 165 0 0 25 0 25 -165 0 -165 0 0 -25z"/>
</g>
</svg>
