<?xml version="1.0" standalone="no"?>
<!DOCTYPE svg PUBLIC "-//W3C//DTD SVG 20010904//EN"
 "http://www.w3.org/TR/2001/REC-SVG-20010904/DTD/svg10.dtd">
<svg version="1.0" xmlns="http://www.w3.org/2000/svg"
 width="210.000000pt" height="74.000000pt" viewBox="0 0 210.000000 74.000000"
 preserveAspectRatio="xMidYMid meet">

<g transform="translate(0.000000,74.000000) scale(0.100000,-0.100000)"
fill="#000000" stroke="none">
<path d="M1190 605 c-26 -32 13 -81 48 -59 22 14 27 41 12 59 -16 19 -44 19
-60 0z m46 -16 c10 -17 -13 -36 -27 -22 -12 12 -4 33 11 33 5 0 12 -5 16 -11z"/>
<path d="M191 596 c-10 -11 -8 -16 8 -21 29 -9 26 -20 -10 -45 -28 -20 -29
-24 -15 -39 11 -12 16 -37 16 -79 0 -59 1 -61 28 -64 25 -4 23 -5 -16 -16 -26
-8 -42 -18 -39 -25 5 -14 56 -12 105 4 27 9 31 13 21 25 -10 12 -2 14 46 14
49 0 56 -2 46 -14 -10 -12 -4 -17 40 -30 66 -20 75 -20 83 0 8 21 9 20 -34 32
-25 7 -29 10 -12 11 20 1 22 6 22 56 0 44 5 60 22 77 l23 23 -45 11 c-56 13
-80 24 -80 35 0 5 7 9 16 9 8 0 13 -4 10 -9 -3 -5 2 -12 11 -15 16 -6 63 28
63 46 0 4 -34 8 -76 8 -47 0 -73 4 -69 10 15 24 -42 7 -72 -22 -18 -17 -36
-28 -40 -24 -5 4 0 14 10 21 16 12 15 14 -14 24 -39 13 -34 14 -48 -3z m135
-55 c-10 -10 -33 -22 -52 -26 -26 -4 -34 -10 -30 -21 4 -10 -2 -14 -21 -14
l-27 0 34 30 c19 16 40 27 47 25 6 -2 19 3 30 10 27 21 39 18 19 -4z m94 -54
c8 -3 -16 -6 -55 -6 l-70 0 40 18 c32 15 43 16 55 6 8 -7 22 -15 30 -18z m0
-37 c0 -6 -35 -10 -85 -10 -50 0 -85 4 -85 10 0 6 35 10 85 10 50 0 85 -4 85
-10z m-37 -37 c-23 -2 -64 -2 -90 0 -26 2 -7 3 42 3 50 0 71 -1 48 -3z m37
-33 c0 -6 -35 -10 -85 -10 -50 0 -85 4 -85 10 0 6 35 10 85 10 50 0 85 -4 85
-10z"/>
<path d="M549 584 c-10 -12 -7 -19 11 -39 21 -22 26 -23 38 -11 11 10 11 19 3
34 -14 27 -37 34 -52 16z"/>
<path d="M619 493 c0 -54 -5 -107 -10 -118 -7 -15 -8 -12 -3 13 3 19 1 33 -5
34 -6 0 -16 1 -22 2 -6 1 -19 -24 -30 -54 -18 -52 -18 -56 -2 -68 15 -10 20
-10 29 3 10 14 13 14 24 0 18 -22 24 -19 44 23 12 24 20 70 24 130 l5 92 33 0
c19 0 34 -4 34 -10 0 -5 -14 -10 -31 -10 l-30 0 2 -79 c2 -60 -1 -84 -14 -104
-14 -22 -14 -27 -2 -37 12 -10 18 -10 30 0 12 10 15 10 15 -4 0 -11 9 -16 33
-16 41 0 57 15 57 55 l1 30 20 -37 c22 -42 22 -42 50 -28 19 11 18 12 -6 48
-14 20 -21 38 -15 40 5 2 10 33 10 68 l0 64 -35 0 c-19 0 -35 5 -35 10 0 6 20
10 45 10 38 0 45 3 45 20 0 19 -7 20 -130 20 l-130 0 -1 -97z m191 -3 c0 -5
-18 -10 -40 -10 -22 0 -40 5 -40 10 0 6 18 10 40 10 22 0 40 -4 40 -10z m0
-50 c0 -5 -18 -10 -40 -10 -22 0 -40 5 -40 10 0 6 18 10 40 10 22 0 40 -4 40
-10z m-60 -75 c0 -29 -4 -35 -21 -35 -21 0 -21 1 -4 26 14 22 15 28 4 35 -11
7 -10 9 4 9 13 0 17 -8 17 -35z"/>
<path d="M900 555 l0 -25 111 0 112 0 -6 -42 c-10 -74 -68 -128 -163 -149 -40
-9 -53 -16 -49 -27 3 -7 5 -18 5 -24 0 -29 155 24 204 70 49 47 87 165 64 202
-12 18 -24 20 -145 20 l-133 0 0 -25z"/>
<path d="M1310 555 l0 -25 135 0 135 0 0 25 0 25 -135 0 -135 0 0 -25z"/>
<path d="M540 505 c-11 -13 -9 -19 10 -40 21 -23 25 -24 39 -10 14 14 13 18
-10 41 -23 23 -27 24 -39 9z"/>
<path d="M1290 475 l0 -25 120 0 c132 0 139 -4 98 -55 -25 -32 -65 -50 -130
-60 -47 -7 -56 -17 -39 -44 7 -10 21 -12 57 -6 106 15 166 59 189 139 24 81
33 76 -140 76 l-155 0 0 -25z"/>
</g>
</svg>
