<?xml version="1.0" standalone="no"?>
<!DOCTYPE svg PUBLIC "-//W3C//DTD SVG 20010904//EN"
 "http://www.w3.org/TR/2001/REC-SVG-20010904/DTD/svg10.dtd">
<svg version="1.0" xmlns="http://www.w3.org/2000/svg"
 width="260.000000pt" height="69.000000pt" viewBox="0 0 260.000000 69.000000"
 preserveAspectRatio="xMidYMid meet">

<g transform="translate(0.000000,69.000000) scale(0.100000,-0.100000)"
fill="#000000" stroke="none">
<path d="M960 375 l0 -165 30 0 30 0 0 90 c0 50 3 90 8 90 4 0 39 -18 79 -39
69 -38 72 -39 88 -21 16 18 16 20 -16 39 -19 12 -62 33 -96 48 l-63 27 0 48
c0 47 -1 48 -30 48 l-30 0 0 -165z"/>
<path d="M1496 531 c-4 -5 -2 -21 4 -35 9 -25 8 -26 -25 -26 -32 0 -35 2 -35
30 0 25 -4 30 -25 30 -21 0 -25 -5 -25 -30 l0 -30 -70 0 c-68 0 -70 -1 -70
-25 0 -24 2 -25 70 -25 l70 0 0 -105 0 -105 25 0 25 0 0 105 0 105 70 0 c68 0
70 1 70 25 0 20 -5 25 -27 25 -14 0 -24 3 -20 6 7 8 -13 64 -23 64 -5 0 -11
-4 -14 -9z"/>
<path d="M1547 534 c-7 -7 13 -54 24 -54 15 0 20 20 9 40 -11 20 -22 25 -33
14z"/>
<path d="M1700 375 l0 -165 30 0 30 0 0 90 c0 50 3 90 8 90 4 0 39 -18 79 -39
69 -38 72 -39 88 -21 16 18 16 20 -16 39 -19 12 -62 33 -96 48 l-63 27 0 48
c0 47 -1 48 -30 48 l-30 0 0 -165z"/>
<path d="M2150 375 c0 -165 3 -170 71 -139 36 16 119 96 119 114 0 4 -10 15
-21 26 -18 16 -23 16 -27 5 -3 -8 -22 -33 -43 -55 l-38 -41 -1 118 0 117 -30
0 -30 0 0 -145z"/>
<path d="M370 491 c-16 -31 4 -63 37 -59 34 4 52 32 37 56 -16 26 -60 28 -74
3z m55 -21 c0 -8 -8 -16 -17 -18 -13 -2 -18 3 -18 18 0 15 5 20 18 18 9 -2 17
-10 17 -18z"/>
<path d="M2050 435 c0 -85 -18 -139 -56 -170 -22 -17 -23 -22 -12 -38 13 -17
15 -17 48 5 56 38 74 79 78 185 l4 93 -31 0 -31 0 0 -75z"/>
<path d="M180 398 c-54 -74 -58 -82 -42 -93 9 -7 22 -12 27 -12 6 1 31 32 58
69 l47 68 93 -100 92 -100 17 22 c10 13 18 26 18 29 0 3 -44 49 -99 102 -127
125 -130 125 -211 15z"/>
<path d="M623 462 c-9 -6 -7 -22 10 -65 19 -48 25 -55 42 -50 31 9 31 10 2 68
-27 56 -33 61 -54 47z"/>
<path d="M741 404 c-16 -70 -66 -125 -133 -143 -37 -11 -45 -16 -41 -32 3 -10
11 -19 18 -19 23 0 96 29 126 51 35 25 76 101 85 158 6 39 5 41 -18 41 -22 0
-26 -7 -37 -56z"/>
<path d="M538 443 c-15 -4 -14 -10 9 -61 30 -69 26 -64 51 -55 l21 8 -26 58
c-14 31 -29 56 -32 56 -3 -1 -14 -3 -23 -6z"/>
<path d="M1304 374 c-4 -14 -21 -47 -40 -73 l-33 -48 24 -11 c21 -10 27 -7 50
20 24 29 44 67 59 116 6 19 4 22 -23 22 -25 0 -32 -5 -37 -26z"/>
<path d="M1475 390 c-11 -18 63 -161 83 -160 4 0 16 7 26 15 18 13 18 16 3 32
-8 10 -27 42 -42 71 -25 50 -54 68 -70 42z"/>
</g>
</svg>
