<?xml version="1.0" standalone="no"?>
<!DOCTYPE svg PUBLIC "-//W3C//DTD SVG 20010904//EN"
 "http://www.w3.org/TR/2001/REC-SVG-20010904/DTD/svg10.dtd">
<svg version="1.0" xmlns="http://www.w3.org/2000/svg"
 width="226.000000pt" height="69.000000pt" viewBox="0 0 226.000000 69.000000"
 preserveAspectRatio="xMidYMid meet">

<g transform="translate(0.000000,69.000000) scale(0.100000,-0.100000)"
fill="#000000" stroke="none">
<path d="M551 488 l-33 -39 22 -24 c24 -25 21 -55 -5 -55 -9 0 -15 -9 -15 -21
0 -17 5 -20 25 -17 14 3 25 1 25 -3 0 -5 -8 -9 -19 -9 -17 0 -30 -38 -31 -88
0 -23 34 -8 41 18 6 21 7 20 8 -12 1 -34 4 -38 26 -38 24 0 25 2 25 75 0 43 4
75 10 75 6 0 10 -5 10 -11 0 -6 9 -8 20 -4 18 6 20 2 20 -44 0 -44 -3 -51 -19
-51 -14 0 -18 -5 -14 -21 5 -19 11 -20 52 -14 64 9 81 15 81 28 0 6 9 1 21
-12 32 -35 62 -25 70 24 4 26 3 43 -5 47 -20 13 -26 9 -27 -19 l-1 -28 -13 30
c-8 17 -14 42 -15 58 0 22 4 27 25 27 18 0 25 5 25 20 0 15 -7 20 -25 20 -22
0 -25 4 -25 33 0 26 5 35 26 43 22 8 23 11 12 25 -12 16 -19 16 -90 1 l-78
-15 -1 -66 c-1 -58 -2 -63 -12 -38 -12 29 -34 36 -43 12 -4 -8 -10 -15 -15
-15 -5 0 6 20 23 46 27 38 30 47 18 54 -22 14 -25 13 -40 -15 -7 -14 -17 -25
-22 -25 -12 0 -10 10 12 45 19 31 19 33 2 37 -12 4 -29 -7 -51 -34z m209 -58
c0 -20 -5 -30 -15 -30 -10 0 -15 10 -15 30 0 20 5 30 15 30 10 0 15 -10 15
-30z m0 -94 c0 -14 4 -36 10 -50 5 -15 6 -26 1 -26 -5 0 -16 -3 -25 -6 -13 -5
-16 3 -16 50 0 43 3 56 15 56 9 0 15 -9 15 -24z"/>
<path d="M300 495 c0 -24 -2 -25 -75 -25 -68 0 -75 -2 -75 -20 0 -18 7 -20 75
-20 l75 0 0 -30 0 -30 -60 0 -60 0 0 -85 c0 -84 0 -85 25 -85 14 0 25 5 25 10
0 6 38 10 95 10 57 0 95 -4 95 -10 0 -5 11 -10 25 -10 25 0 25 1 25 85 l0 85
-60 0 -60 0 0 30 0 30 75 0 c68 0 75 2 75 20 0 18 -7 20 -75 20 -73 0 -75 1
-75 25 0 20 -5 25 -25 25 -20 0 -25 -5 -25 -25z m120 -200 l0 -35 -95 0 -95 0
0 35 0 35 95 0 95 0 0 -35z"/>
<path d="M1377 500 c-4 -17 -14 -20 -56 -20 -44 0 -51 -3 -51 -20 0 -17 7 -20
41 -20 l40 0 -21 -30 c-11 -16 -34 -42 -49 -58 -25 -25 -27 -30 -15 -47 13
-18 14 -18 34 0 20 18 20 18 20 -38 0 -57 0 -57 30 -57 l30 0 0 70 c0 68 1 70
25 70 25 0 25 -1 25 -85 0 -84 0 -85 25 -85 25 0 25 1 25 85 l0 85 30 0 c29 0
30 -2 30 -45 0 -41 -2 -45 -25 -45 -26 0 -29 -7 -19 -34 7 -19 64 -22 82 -4 7
7 12 43 12 90 l0 78 -55 0 c-48 0 -55 2 -55 20 0 15 -7 20 -25 20 -18 0 -25
-5 -25 -20 0 -15 -7 -20 -26 -20 -25 0 -26 1 -12 23 14 20 24 22 117 25 93 2
101 4 101 22 0 18 -7 20 -91 20 -86 0 -90 1 -84 20 5 17 2 20 -23 20 -21 0
-31 -6 -35 -20z"/>
<path d="M1699 493 c0 -11 -3 -13 -6 -5 -2 6 -14 12 -25 12 -17 0 -19 -4 -14
-25 4 -14 2 -25 -4 -25 -21 0 -9 -30 13 -30 20 -1 20 -2 -6 -16 -31 -17 -31
-41 -1 -36 10 2 46 4 79 5 33 1 66 6 73 10 9 6 12 -7 12 -57 0 -38 4 -66 11
-68 6 -2 -1 -9 -16 -16 -15 -7 -24 -8 -20 -2 4 6 -4 19 -17 30 l-23 19 28 1
c20 0 27 5 27 20 0 16 -7 20 -30 20 -20 0 -30 5 -30 15 0 9 -9 15 -25 15 -16
0 -25 -6 -25 -15 0 -10 -10 -15 -30 -15 -23 0 -30 -4 -30 -20 0 -15 7 -20 25
-20 14 0 25 -4 25 -10 0 -5 -3 -10 -7 -10 -21 -1 -53 -37 -47 -53 8 -22 14
-22 58 8 l37 25 39 -25 c39 -24 40 -25 75 -8 21 10 34 22 31 30 -3 8 2 13 14
13 11 0 19 -5 17 -11 -1 -7 13 -21 31 -32 28 -17 35 -18 43 -6 6 10 2 19 -14
31 -12 10 -16 18 -9 18 9 0 12 26 12 95 l0 95 -31 0 c-17 0 -28 4 -24 10 3 6
19 10 36 10 19 0 29 5 29 15 0 24 -206 20 -220 -4 -8 -14 -9 -13 -10 7 0 17
-6 22 -25 22 -17 0 -25 -6 -26 -17z m171 -34 c0 -5 -11 -9 -25 -9 -20 0 -25
-5 -25 -25 0 -27 -7 -30 -30 -15 -13 8 -12 10 3 10 9 0 17 7 17 15 0 8 -4 15
-10 15 -5 0 -7 6 -4 13 5 15 74 11 74 -4z m50 -54 c0 -9 -9 -15 -25 -15 -16 0
-25 6 -25 15 0 9 9 15 25 15 16 0 25 -6 25 -15z m0 -55 c0 -5 -11 -10 -25 -10
-14 0 -25 5 -25 10 0 6 11 10 25 10 14 0 25 -4 25 -10z m0 -50 c0 -5 -11 -10
-25 -10 -14 0 -25 5 -25 10 0 6 11 10 25 10 14 0 25 -4 25 -10z"/>
<path d="M1031 361 c-16 -28 9 -56 42 -47 20 5 27 13 27 30 0 37 -52 50 -69
17z"/>
<path d="M630 285 c0 -28 4 -35 20 -35 20 0 26 22 14 54 -12 30 -34 18 -34
-19z"/>
</g>
</svg>
