<?xml version="1.0" standalone="no"?>
<!DOCTYPE svg PUBLIC "-//W3C//DTD SVG 20010904//EN"
 "http://www.w3.org/TR/2001/REC-SVG-20010904/DTD/svg10.dtd">
<svg version="1.0" xmlns="http://www.w3.org/2000/svg"
 width="204.000000pt" height="77.000000pt" viewBox="0 0 204.000000 77.000000"
 preserveAspectRatio="xMidYMid meet">

<g transform="translate(0.000000,77.000000) scale(0.100000,-0.100000)"
fill="#000000" stroke="none">
<path d="M1247 594 c-7 -7 13 -54 24 -54 14 0 17 14 8 38 -8 22 -20 28 -32 16z"/>
<path d="M255 571 c-3 -11 -17 -36 -31 -57 -25 -36 -25 -39 -8 -51 16 -12 16
-13 1 -13 -10 0 -17 -8 -17 -20 0 -18 7 -20 70 -20 l70 0 0 -45 c0 -45 0 -45
-35 -45 -33 0 -35 2 -35 35 0 31 -3 35 -25 35 -24 0 -25 -2 -25 -65 0 -63 1
-65 25 -65 14 0 25 5 25 10 0 6 38 10 95 10 57 0 95 -4 95 -10 0 -5 14 -10 30
-10 l30 0 0 65 0 65 -30 0 c-28 0 -30 -3 -30 -35 0 -33 -2 -35 -35 -35 -35 0
-35 0 -35 45 l0 45 70 0 c63 0 70 2 70 20 0 18 -7 20 -70 20 l-70 0 0 30 0 30
65 0 c58 0 65 2 65 20 0 19 -7 20 -106 20 -87 0 -105 2 -101 14 6 14 -12 26
-38 26 -8 0 -16 -9 -20 -19z m85 -91 c0 -29 -1 -30 -50 -30 l-51 0 23 30 c15
21 30 30 50 30 24 0 28 -4 28 -30z"/>
<path d="M1198 584 c-7 -7 14 -64 24 -64 14 0 18 19 8 44 -9 25 -21 32 -32 20z"/>
<path d="M1405 528 c-13 -29 -43 -98 -68 -153 l-45 -100 26 -9 c18 -6 27 -5
30 3 2 6 18 40 35 74 41 79 60 81 69 7 7 -63 32 -90 83 -90 47 0 82 32 100 92
8 28 14 53 12 54 -1 1 -14 5 -28 9 -24 6 -27 4 -32 -33 -7 -43 -38 -78 -61
-69 -8 3 -18 23 -21 44 -13 80 -15 83 -45 89 l-29 6 29 58 29 58 -22 6 c-36 9
-37 8 -62 -46z"/>
<path d="M993 558 c-58 -9 -63 -12 -63 -35 0 -24 2 -24 41 -18 l42 7 -28 -36
c-29 -38 -43 -104 -31 -151 15 -59 127 -85 194 -45 35 22 62 71 62 117 l1 28
20 -27 c25 -34 33 -35 47 -4 9 21 6 28 -23 56 -18 17 -41 49 -50 71 -15 32
-22 38 -39 33 -12 -4 -22 -7 -23 -8 -1 -1 2 -20 8 -41 6 -22 9 -64 7 -94 -4
-44 -10 -59 -32 -78 -33 -28 -79 -30 -106 -3 -37 37 -19 102 46 171 23 24 33
41 28 52 -7 19 -11 19 -101 5z"/>
<path d="M701 431 c-16 -28 9 -56 42 -47 20 5 27 13 27 30 0 37 -52 50 -69 17z"/>
</g>
</svg>
