<?xml version="1.0" standalone="no"?>
<!DOCTYPE svg PUBLIC "-//W3C//DTD SVG 20010904//EN"
 "http://www.w3.org/TR/2001/REC-SVG-20010904/DTD/svg10.dtd">
<svg version="1.0" xmlns="http://www.w3.org/2000/svg"
 width="149.000000pt" height="70.000000pt" viewBox="0 0 149.000000 70.000000"
 preserveAspectRatio="xMidYMid meet">

<g transform="translate(0.000000,70.000000) scale(0.100000,-0.100000)"
fill="#000000" stroke="none">
<path d="M560 535 c0 -28 -4 -35 -20 -35 -17 0 -20 -7 -20 -40 0 -22 0 -43 -1
-47 0 -5 7 -9 15 -11 9 -2 16 7 20 25 2 15 3 0 1 -35 -2 -39 -10 -75 -23 -96
-18 -31 -19 -36 -6 -47 17 -14 20 -11 50 44 11 20 19 26 27 18 17 -13 115 73
134 117 8 19 17 32 19 29 9 -9 -6 -45 -31 -75 -17 -20 -21 -32 -14 -43 7 -11
16 -7 45 25 29 31 38 36 45 24 4 -8 17 -25 27 -39 17 -20 22 -22 36 -10 15 13
15 16 -2 35 -22 24 -42 60 -42 75 0 6 11 11 25 11 16 0 25 6 25 15 0 8 -4 15
-10 15 -5 0 -7 6 -4 14 8 21 -14 56 -31 50 -8 -4 -15 -1 -15 5 0 6 -9 11 -20
11 -17 0 -20 -7 -21 -42 -2 -30 -3 -35 -6 -15 -4 23 -9 27 -35 27 -23 0 -29 4
-24 15 4 11 -1 15 -18 15 -17 0 -26 -7 -30 -26 -5 -20 -10 -23 -20 -15 -7 6
-16 8 -19 4 -4 -3 -7 3 -7 15 0 17 -6 22 -25 22 -22 0 -25 -4 -25 -35z m270
-37 c0 -5 -4 -8 -10 -8 -5 0 -10 10 -10 23 0 18 2 19 10 7 5 -8 10 -18 10 -22z
m-200 -18 c-6 -12 -14 -20 -17 -17 -2 3 1 14 8 26 17 26 24 19 9 -9z m90 22
c0 -14 -11 -21 -26 -15 -8 3 -11 9 -8 14 7 11 34 12 34 1z m-20 -58 c0 -11 -4
-12 -19 -4 -25 13 -38 -4 -20 -26 11 -13 9 -19 -11 -35 -24 -18 -42 -21 -41
-6 1 4 1 23 1 43 0 29 3 34 13 25 11 -8 18 -6 31 8 19 21 46 18 46 -5z"/>
<path d="M950 560 c0 -5 -10 -10 -23 -10 -21 0 -24 -7 -33 -65 -8 -52 -7 -66
4 -70 18 -7 32 2 32 20 0 8 5 17 10 20 6 4 10 -8 10 -28 0 -30 -4 -35 -30 -40
-22 -5 -30 -12 -30 -28 0 -18 4 -20 30 -14 l30 7 0 -51 c0 -48 2 -51 25 -51
21 0 25 5 25 32 0 25 3 29 12 20 7 -7 15 -12 19 -12 15 0 69 98 83 150 8 30
15 45 15 32 1 -34 -35 -130 -63 -166 -23 -31 -23 -33 -5 -44 16 -10 22 -7 46
24 15 20 38 66 50 103 l22 66 0 -55 c-1 -77 -11 -104 -37 -108 -14 -2 -22 -10
-22 -23 0 -15 7 -19 33 -19 17 0 38 4 46 9 16 10 30 104 30 209 l1 62 -70 0
c-63 0 -70 2 -70 20 0 14 -7 20 -24 20 -20 0 -24 -6 -30 -40 -8 -50 -36 -46
-36 6 0 30 -3 34 -25 34 -14 0 -25 -4 -25 -10z m106 -152 c-9 -24 -25 -54 -36
-68 l-20 -25 0 26 c0 15 7 29 15 33 8 3 15 15 15 26 0 11 4 20 9 20 5 0 13 9
16 21 4 11 9 18 12 15 3 -3 -2 -25 -11 -48z m-36 18 c0 -3 -4 -8 -10 -11 -5
-3 -10 -1 -10 4 0 6 5 11 10 11 6 0 10 -2 10 -4z"/>
<path d="M160 530 c0 -18 7 -20 70 -20 39 0 70 -4 70 -8 0 -12 -110 -116 -138
-131 -22 -12 -23 -14 -7 -31 20 -22 28 -19 99 35 l46 35 0 -85 c0 -84 0 -85
25 -85 25 0 25 1 25 85 l0 85 62 -45 61 -46 21 22 c15 15 18 23 8 26 -7 3 -38
24 -70 48 -42 32 -60 40 -69 33 -10 -8 -13 -4 -13 14 0 37 19 48 82 48 51 0
58 2 58 20 0 19 -7 20 -165 20 -158 0 -165 -1 -165 -20z"/>
<path d="M746 322 c-9 -14 16 -82 30 -82 21 0 26 19 14 55 -11 33 -32 46 -44
27z"/>
<path d="M806 321 c-7 -11 21 -81 32 -81 4 0 13 4 20 9 11 6 10 15 -4 44 -17
36 -37 47 -48 28z"/>
<path d="M627 286 c-14 -31 -14 -35 -1 -40 26 -10 32 -7 43 25 15 43 14 49 -7
49 -11 0 -25 -14 -35 -34z"/>
<path d="M690 296 c0 -34 10 -56 25 -56 20 0 26 14 19 49 -8 39 -44 45 -44 7z"/>
</g>
</svg>
